<?xml version="1.0" encoding="UTF-8"?>
<svg id="Layer_2" data-name="Layer 2" xmlns="http://www.w3.org/2000/svg" xmlns:xlink="http://www.w3.org/1999/xlink" viewBox="0 0 470 470">
  <defs>
    <style>
      .cls-1 {
        fill: url(#linear-gradient);
      }

      .cls-1, .cls-2, .cls-3, .cls-4, .cls-5, .cls-6, .cls-7, .cls-8, .cls-9, .cls-10, .cls-11, .cls-12, .cls-13, .cls-14, .cls-15, .cls-16, .cls-17, .cls-18, .cls-19, .cls-20, .cls-21, .cls-22, .cls-23, .cls-24, .cls-25, .cls-26, .cls-27, .cls-28, .cls-29, .cls-30, .cls-31, .cls-32, .cls-33, .cls-34, .cls-35, .cls-36, .cls-37, .cls-38, .cls-39, .cls-40, .cls-41, .cls-42, .cls-43, .cls-44, .cls-45 {
        stroke-width: 0px;
      }

      .cls-2 {
        fill: url(#linear-gradient-38);
      }

      .cls-3 {
        fill: url(#linear-gradient-33);
      }

      .cls-4 {
        fill: url(#linear-gradient-29);
      }

      .cls-5 {
        fill: url(#linear-gradient-32);
      }

      .cls-6 {
        fill: url(#linear-gradient-30);
      }

      .cls-7 {
        fill: url(#linear-gradient-31);
      }

      .cls-8 {
        fill: url(#linear-gradient-36);
      }

      .cls-9 {
        fill: url(#linear-gradient-39);
      }

      .cls-10 {
        fill: url(#linear-gradient-34);
      }

      .cls-11 {
        fill: url(#linear-gradient-37);
      }

      .cls-12 {
        fill: url(#linear-gradient-35);
      }

      .cls-13 {
        fill: url(#linear-gradient-28);
      }

      .cls-14 {
        fill: url(#linear-gradient-25);
      }

      .cls-15 {
        fill: url(#linear-gradient-11);
      }

      .cls-16 {
        fill: url(#linear-gradient-12);
      }

      .cls-17 {
        fill: url(#linear-gradient-13);
      }

      .cls-18 {
        fill: url(#linear-gradient-10);
      }

      .cls-19 {
        fill: url(#linear-gradient-17);
      }

      .cls-20 {
        fill: url(#linear-gradient-16);
      }

      .cls-21 {
        fill: url(#linear-gradient-19);
      }

      .cls-22 {
        fill: url(#linear-gradient-15);
      }

      .cls-23 {
        fill: url(#linear-gradient-23);
      }

      .cls-24 {
        fill: url(#linear-gradient-21);
      }

      .cls-25 {
        fill: url(#linear-gradient-18);
      }

      .cls-26 {
        fill: url(#linear-gradient-14);
      }

      .cls-27 {
        fill: url(#linear-gradient-22);
      }

      .cls-28 {
        fill: url(#linear-gradient-20);
      }

      .cls-29 {
        fill: url(#linear-gradient-27);
      }

      .cls-30 {
        fill: url(#linear-gradient-24);
      }

      .cls-31 {
        fill: url(#linear-gradient-26);
      }

      .cls-32 {
        fill: url(#linear-gradient-44);
      }

      .cls-33 {
        fill: url(#linear-gradient-42);
      }

      .cls-34 {
        fill: url(#linear-gradient-43);
      }

      .cls-35 {
        fill: url(#linear-gradient-40);
      }

      .cls-36 {
        fill: url(#linear-gradient-41);
      }

      .cls-37 {
        fill: url(#linear-gradient-4);
      }

      .cls-38 {
        fill: url(#linear-gradient-2);
      }

      .cls-39 {
        fill: url(#linear-gradient-3);
      }

      .cls-40 {
        fill: url(#linear-gradient-8);
      }

      .cls-41 {
        fill: url(#linear-gradient-9);
      }

      .cls-42 {
        fill: url(#linear-gradient-7);
      }

      .cls-43 {
        fill: url(#linear-gradient-5);
      }

      .cls-44 {
        fill: url(#linear-gradient-6);
      }
    </style>
    <linearGradient id="linear-gradient" x1="184.46" y1="124.67" x2="285.53" y2="124.67" gradientUnits="userSpaceOnUse">
      <stop offset="0" stop-color="#d9ae37"/>
      <stop offset=".18" stop-color="#fffe9f"/>
      <stop offset=".34" stop-color="#fff7ab"/>
      <stop offset=".69" stop-color="#d9ae37"/>
      <stop offset=".92" stop-color="#a07402"/>
    </linearGradient>
    <linearGradient id="linear-gradient-2" x1="184.29" y1="222.83" x2="285.36" y2="222.83" xlink:href="#linear-gradient"/>
    <linearGradient id="linear-gradient-3" x1="184.16" y1="168.42" x2="285.23" y2="168.42" xlink:href="#linear-gradient"/>
    <linearGradient id="linear-gradient-4" x1="119.76" y1="178.95" x2="349.76" y2="178.95" xlink:href="#linear-gradient"/>
    <linearGradient id="linear-gradient-5" x1="8011.07" y1="334.39" x2="8054.13" y2="334.39" gradientTransform="translate(8195.57) rotate(-180) scale(1 -1)" gradientUnits="userSpaceOnUse">
      <stop offset="0" stop-color="#b37e10"/>
      <stop offset=".22" stop-color="#e3c15b"/>
      <stop offset=".33" stop-color="#f8dd7b"/>
      <stop offset=".52" stop-color="#fdf1a4"/>
      <stop offset=".73" stop-color="#f8dd7b"/>
      <stop offset="1" stop-color="#b37e10"/>
    </linearGradient>
    <linearGradient id="linear-gradient-6" x1="8009.77" y1="357.16" x2="8055.16" y2="311.77" gradientTransform="translate(8195.57) rotate(-180) scale(1 -1)" gradientUnits="userSpaceOnUse">
      <stop offset="0" stop-color="#b37e10"/>
      <stop offset=".22" stop-color="#e3c15b"/>
      <stop offset=".33" stop-color="#f8dd7b"/>
      <stop offset=".52" stop-color="#fdf1a4"/>
      <stop offset=".73" stop-color="#f8dd7b"/>
      <stop offset="1" stop-color="#b37e10"/>
    </linearGradient>
    <linearGradient id="linear-gradient-7" x1="285.53" y1="335.58" x2="328.58" y2="335.58" gradientTransform="matrix(1,0,0,1,0,0)" xlink:href="#linear-gradient-5"/>
    <linearGradient id="linear-gradient-8" x1="284.23" y1="358.35" x2="329.62" y2="312.96" gradientTransform="matrix(1,0,0,1,0,0)" xlink:href="#linear-gradient-6"/>
    <linearGradient id="linear-gradient-9" x1="244.07" y1="361.06" x2="308.8" y2="361.06" gradientTransform="matrix(1,0,0,1,0,0)" xlink:href="#linear-gradient-5"/>
    <linearGradient id="linear-gradient-10" x1="286.74" y1="365.15" x2="349.01" y2="365.15" gradientTransform="matrix(1,0,0,1,0,0)" xlink:href="#linear-gradient-5"/>
    <linearGradient id="linear-gradient-11" x1="329.21" y1="332.71" x2="381.44" y2="332.71" gradientTransform="matrix(1,0,0,1,0,0)" xlink:href="#linear-gradient-5"/>
    <linearGradient id="linear-gradient-12" x1="358.77" y1="313.21" x2="411.37" y2="313.21" gradientTransform="matrix(1,0,0,1,0,0)" xlink:href="#linear-gradient-5"/>
    <linearGradient id="linear-gradient-13" x1="380.62" y1="299.37" x2="428.24" y2="299.37" gradientTransform="matrix(1,0,0,1,0,0)" xlink:href="#linear-gradient-5"/>
    <linearGradient id="linear-gradient-14" x1="398.97" y1="284.46" x2="439.94" y2="284.46" gradientTransform="matrix(1,0,0,1,0,0)" xlink:href="#linear-gradient-5"/>
    <linearGradient id="linear-gradient-15" x1="412.34" y1="268.33" x2="448.76" y2="268.33" gradientTransform="matrix(1,0,0,1,0,0)" xlink:href="#linear-gradient-5"/>
    <linearGradient id="linear-gradient-16" x1="256.78" y1="392.09" x2="301.59" y2="347.27" gradientTransform="matrix(1,0,0,1,0,0)" xlink:href="#linear-gradient-6"/>
    <linearGradient id="linear-gradient-17" x1="303.91" y1="379.7" x2="331.64" y2="351.98" gradientTransform="matrix(1,0,0,1,0,0)" xlink:href="#linear-gradient-6"/>
    <linearGradient id="linear-gradient-18" x1="338.94" y1="357.81" x2="373.01" y2="323.74" gradientTransform="matrix(1,0,0,1,0,0)" xlink:href="#linear-gradient-6"/>
    <linearGradient id="linear-gradient-19" x1="367.5" y1="335.68" x2="396.94" y2="306.24" gradientTransform="matrix(1,0,0,1,0,0)" xlink:href="#linear-gradient-6"/>
    <linearGradient id="linear-gradient-20" x1="387.8" y1="316.79" x2="410.19" y2="294.41" gradientTransform="matrix(1,0,0,1,0,0)" xlink:href="#linear-gradient-6"/>
    <linearGradient id="linear-gradient-21" x1="403.85" y1="298.03" x2="424.06" y2="277.81" gradientTransform="matrix(1,0,0,1,0,0)" xlink:href="#linear-gradient-6"/>
    <linearGradient id="linear-gradient-22" x1="417.58" y1="278.69" x2="434.68" y2="261.58" gradientTransform="matrix(1,0,0,1,0,0)" xlink:href="#linear-gradient-6"/>
    <linearGradient id="linear-gradient-23" x1="210.08" y1="335.34" x2="431.5" y2="335.34" gradientTransform="matrix(1,0,0,1,0,0)" xlink:href="#linear-gradient-5"/>
    <linearGradient id="linear-gradient-24" x1="230.53" y1="430.74" x2="416.56" y2="244.71" gradientTransform="matrix(1,0,0,1,0,0)" xlink:href="#linear-gradient-5"/>
    <linearGradient id="linear-gradient-25" x1="427.01" y1="255.33" x2="444.46" y2="255.33" gradientTransform="matrix(1,0,0,1,0,0)" xlink:href="#linear-gradient-5"/>
    <linearGradient id="linear-gradient-26" x1="424.61" y1="267.34" x2="447.36" y2="244.58" gradientTransform="matrix(1,0,0,1,0,0)" xlink:href="#linear-gradient-6"/>
    <linearGradient id="linear-gradient-27" x1="7969.61" y1="359.87" x2="8034.34" y2="359.87" xlink:href="#linear-gradient-5"/>
    <linearGradient id="linear-gradient-28" x1="8012.28" y1="363.97" x2="8074.55" y2="363.97" xlink:href="#linear-gradient-5"/>
    <linearGradient id="linear-gradient-29" x1="8054.76" y1="331.53" x2="8106.99" y2="331.53" xlink:href="#linear-gradient-5"/>
    <linearGradient id="linear-gradient-30" x1="8084.31" y1="312.03" x2="8136.91" y2="312.03" xlink:href="#linear-gradient-5"/>
    <linearGradient id="linear-gradient-31" x1="8106.16" y1="298.19" x2="8153.79" y2="298.19" xlink:href="#linear-gradient-5"/>
    <linearGradient id="linear-gradient-32" x1="8124.51" y1="283.28" x2="8165.49" y2="283.28" xlink:href="#linear-gradient-5"/>
    <linearGradient id="linear-gradient-33" x1="8137.88" y1="267.15" x2="8174.31" y2="267.15" xlink:href="#linear-gradient-5"/>
    <linearGradient id="linear-gradient-34" x1="7982.32" y1="390.91" x2="8027.14" y2="346.09" xlink:href="#linear-gradient-6"/>
    <linearGradient id="linear-gradient-35" x1="8029.46" y1="378.52" x2="8057.18" y2="350.8" xlink:href="#linear-gradient-6"/>
    <linearGradient id="linear-gradient-36" x1="8064.48" y1="356.63" x2="8098.56" y2="322.56" xlink:href="#linear-gradient-6"/>
    <linearGradient id="linear-gradient-37" x1="8093.05" y1="334.5" x2="8122.48" y2="305.06" xlink:href="#linear-gradient-6"/>
    <linearGradient id="linear-gradient-38" x1="8113.35" y1="315.61" x2="8135.73" y2="293.23" xlink:href="#linear-gradient-6"/>
    <linearGradient id="linear-gradient-39" x1="8129.39" y1="296.85" x2="8149.61" y2="276.63" xlink:href="#linear-gradient-6"/>
    <linearGradient id="linear-gradient-40" x1="8143.12" y1="277.51" x2="8160.22" y2="260.4" xlink:href="#linear-gradient-6"/>
    <linearGradient id="linear-gradient-41" x1="7935.62" y1="334.16" x2="8157.04" y2="334.16" xlink:href="#linear-gradient-5"/>
    <linearGradient id="linear-gradient-42" x1="7956.07" y1="429.56" x2="8142.1" y2="243.53" xlink:href="#linear-gradient-5"/>
    <linearGradient id="linear-gradient-43" x1="8152.55" y1="254.15" x2="8170" y2="254.15" xlink:href="#linear-gradient-5"/>
    <linearGradient id="linear-gradient-44" x1="8150.15" y1="266.15" x2="8172.91" y2="243.4" xlink:href="#linear-gradient-6"/>
  </defs>
  <g id="Camada_1" data-name="Camada 1">
    <g>
      <circle class="cls-45" cx="235" cy="235" r="235"/>
      <polygon class="cls-1" points="184.46 134.86 201.17 145.65 235.11 124.63 268.68 146.15 285.53 135.65 235.24 103.19 184.46 134.86"/>
      <polygon class="cls-38" points="184.29 222.43 234.57 254.89 285.36 223.22 235.07 190.76 184.29 222.43"/>
      <polygon class="cls-39" points="235.25 168.35 268.71 189.8 285.23 179.5 234.94 147.04 184.16 178.71 200.98 189.57 235.25 168.35"/>
      <path class="cls-37" d="M234.76,63.95c-63.51,0-115,51.49-115,115s51.49,115,115,115,115-51.49,115-115-51.49-115-115-115ZM321.15,179.79l-34.62,21.44,34.75,22.28-86.89,53.81-86.04-55.16,34.62-21.44-34.75-22.28,34.94-21.64-34.64-22.21,86.89-53.81,86.04,55.16-34.94,21.64,34.64,22.21Z"/>
      <g>
        <path class="cls-43" d="M154.86,343.52c-12.13-12.01-14.24-31.32-13.16-32.36,0,0,11.02,8.46,29.42,15.95,15.57,6.34,13.27,30.52,13.27,30.52,0,0-17.4-2.1-29.53-14.11Z"/>
        <path class="cls-44" d="M184.33,358.1c-.18-.02-17.7-2.25-29.8-14.24-10.22-10.13-13.59-25.68-13.55-31.23,0-1.27.2-1.63.39-1.81l.29-.28.32.25c.11.08,11.19,8.51,29.31,15.89,15.72,6.4,13.58,30.76,13.56,31l-.05.48-.48-.06ZM155.19,343.18h0c10.74,10.64,25.85,13.45,28.76,13.9.21-3.45.84-23.9-13.01-29.54-16.02-6.52-26.59-13.87-29-15.62-.39,3.26,2.32,20.43,13.26,31.26Z"/>
        <g>
          <g>
            <path class="cls-42" d="M315.17,344.7c12.13-12.01,14.24-31.32,13.16-32.36,0,0-11.02,8.46-29.42,15.95-15.57,6.34-13.27,30.52-13.27,30.52,0,0,17.4-2.1,29.53-14.11Z"/>
            <path class="cls-40" d="M285.22,359.34l-.05-.48c-.02-.25-2.16-24.6,13.56-31,18.12-7.38,29.2-15.8,29.31-15.89l.32-.25.29.28c.19.18.38.54.39,1.81.04,5.54-3.33,21.1-13.55,31.23-12.1,11.99-29.63,14.22-29.8,14.24l-.48.06ZM328.09,313.11c-2.42,1.75-12.98,9.1-29,15.62-13.86,5.64-13.22,26.09-13.01,29.54,2.9-.45,18.02-3.27,28.76-13.9h0c10.93-10.83,13.65-28,13.26-31.26Z"/>
            <g>
              <g>
                <path class="cls-41" d="M278.46,370.47c-6.07-.71-11.89.01-16.86,1.22,3.81-2.53,7.69-5.8,10.96-9.94,10.57-13.4,10.31-32.82,9.11-33.73,0,0-9.9,9.74-27.25,19.42-14.68,8.2-9.44,31.91-9.44,31.91,0,0,.86-.21,2.29-.69,2.98,4.15,14.61,18.72,28.53,14.75,19.1-5.46,32.99-5.61,32.99-5.61.21-1.49-13.37-15.37-30.33-17.34Z"/>
                <path class="cls-18" d="M318.68,353.48c-16.95-1.97-31.94,7.12-31.94,7.12,0,0,13.11,20.45,29.27,15.83,19.1-5.46,32.99-5.61,32.99-5.61.21-1.49-13.37-15.37-30.33-17.34Z"/>
                <path class="cls-15" d="M356.29,340.45c-5.95-.69-11.62.32-16.18,1.71,3.58-2.6,7.55-6.29,10.35-11.18,6.4-11.19,3.75-25.83,2.72-26.4,0,0-6.36,8.35-18.42,17.41-8.62,6.47-4.97,19.87-3.62,23.89-.91.49-1.42.81-1.42.81,0,0,10.82,17.56,24.28,13.53,15.9-4.77,27.44-4.94,27.44-4.94.18-1.28-11.06-13.19-25.15-14.82Z"/>
                <path class="cls-16" d="M387.89,323.61c-5.78-.67-11.27.38-15.62,1.76,2.84-3.75,5.85-8.87,7.12-14.92,2.72-12.95-4.49-26.43-5.68-26.65,0,0-3.58,10.17-12.51,22.83-5.43,7.7-.59,17.5,2.57,22.41-.45.26-.7.41-.7.41,0,0,10.1,16.4,22.66,12.63,14.84-4.45,25.62-4.62,25.62-4.62.17-1.2-10.33-12.31-23.48-13.84Z"/>
                <path class="cls-17" d="M407.21,307.75c-5.95-.05-11.3,1.96-15.03,3.86,2.26-3.61,4.99-9.22,5.33-15.67.59-11.2-7.21-21.55-8.23-21.58,0,0-1.67,8.98-7.49,20.75-3.83,7.73,2.7,15.94,5.81,19.23-.48.34-.76.56-.76.56,0,0,9.99,12.9,20.23,8.59,12.1-5.09,21.17-6.2,21.17-6.2.03-1.02-9.81-9.44-21.03-9.54Z"/>
                <path class="cls-26" d="M420.99,289.56c-4.16.69-7.77,2.53-10.5,4.36,1.37-3.07,2.62-7.11,2.52-11.52-.2-9.51-7.44-17.76-8.31-17.72,0,0-.85,7.7-5.03,18.01-2.61,6.44,2.7,12.65,5.67,15.48-.21.22-.32.34-.32.34,0,0,10.23,9.31,18.15,4.22,9.36-6.02,16.77-8.27,16.77-8.27-.12-.86-9.57-6.45-18.95-4.89Z"/>
                <path class="cls-22" d="M419.3,279.18c-.1.1-.16.18-.16.18,0,0,8.62,8.54,15.36,4.14,7.97-5.2,14.25-7.06,14.25-7.06-.1-.77-8.08-5.96-16.04-4.76-4.37.66-8.03,2.91-10.45,4.81,1.14-2.73,2.31-6.77,1.76-11.05-.98-7.65-7.85-13.64-8.59-13.53,0,0-.07,6.28-2.77,14.98-1.79,5.76,4.02,10.5,6.63,12.3Z"/>
                <path class="cls-20" d="M270.96,394.57c-11.56,0-20.79-11.13-23.87-15.35-1.24.4-1.97.58-2,.59l-.47.12-.1-.47c-.05-.24-5.15-24.15,9.67-32.43,17.09-9.54,27.05-19.25,27.15-19.35l.29-.29.33.24c.21.16.45.49.61,1.74.71,5.5-.72,21.35-9.63,32.65-2.5,3.17-5.55,6.08-9.1,8.67,5.1-1.01,10.03-1.25,14.69-.71,14.3,1.66,26.54,11.83,29.93,16.21.78,1,.84,1.4.81,1.67l-.06.4h-.41c-.14,0-14.05.22-32.87,5.59-1.7.48-3.36.7-4.97.7ZM247.45,378.11l.2.28c3.16,4.39,14.51,18.43,28.01,14.57,16.68-4.77,29.54-5.5,32.48-5.61-1.62-2.71-14.39-14.63-29.74-16.42h0c-5.26-.61-10.88-.2-16.7,1.21l-2.61.63,2.23-1.49c4.32-2.87,7.96-6.18,10.85-9.84,9.53-12.08,10.12-29.46,9.34-32.64-2.18,2.04-11.77,10.61-26.88,19.05-13.06,7.29-9.93,27.51-9.3,30.91.39-.11,1-.29,1.78-.55l.33-.11Z"/>
                <path class="cls-19" d="M311.24,377.57c-5.33,0-10.86-2.36-16.24-6.96-5.29-4.53-8.63-9.7-8.66-9.75l-.26-.41.41-.25c.15-.09,15.31-9.15,32.24-7.19,14.3,1.66,26.54,11.83,29.94,16.21.77,1,.84,1.4.81,1.66l-.06.4h-.41c-.14,0-14.05.22-32.87,5.59-1.61.46-3.24.69-4.9.69ZM287.41,360.76c1.97,2.85,14.09,19.32,28.47,15.22,16.68-4.77,29.54-5.5,32.48-5.61-1.62-2.7-14.4-14.63-29.74-16.42-15.02-1.75-28.64,5.37-31.21,6.81Z"/>
                <path class="cls-25" d="M349.97,361.29c-11.66,0-20.55-14.19-20.65-14.35l-.25-.4.4-.25s.39-.24,1.1-.63c-1.44-4.46-4.7-17.57,3.91-24.04,11.88-8.92,18.27-17.24,18.33-17.32l.25-.32.36.19c.21.12.47.38.78,1.49,1.22,4.31,2.02,16.22-3.32,25.55-2.06,3.6-4.92,6.9-8.54,9.84,4.87-1.23,9.57-1.59,14.01-1.07,11.73,1.36,21.75,9.83,24.76,13.72.77.99.84,1.38.8,1.64l-.06.4h-.41c-.12,0-11.67.24-27.31,4.93-1.42.43-2.81.62-4.16.62ZM330.39,346.85c1.72,2.57,11.65,16.46,23.48,12.92,13.69-4.11,24.29-4.82,26.93-4.94-1.47-2.42-11.85-12.43-24.56-13.9h0c-5.02-.58-10.4-.01-15.98,1.7l-2.7.83,2.29-1.66c4.43-3.22,7.87-6.93,10.21-11.03,5.75-10.05,4.12-22.71,3.09-25.35-1.61,1.98-7.83,9.27-18.1,16.97-8.37,6.28-4.76,19.47-3.46,23.36l.13.38-.35.19c-.41.22-.74.41-.98.55Z"/>
                <path class="cls-21" d="M381.99,343.1c-10.91,0-19.22-13.26-19.31-13.41l-.25-.4.4-.25s.1-.06.29-.17c-3.32-5.29-7.7-14.85-2.29-22.52,8.79-12.46,12.41-22.61,12.45-22.72l.13-.38.4.07c.24.05.57.22,1.23,1.21,2.55,3.82,7.09,15.21,4.82,26.01-1,4.75-3.14,9.44-6.36,13.96,5.03-1.44,9.89-1.89,14.45-1.36h0c10.96,1.27,20.32,9.19,23.13,12.83.72.94.79,1.31.75,1.55l-.06.4h-.41c-.11,0-10.89.22-25.49,4.6-1.33.4-2.63.58-3.89.58ZM363.75,329.6c1.65,2.47,10.88,15.31,21.86,12.02,12.7-3.81,22.55-4.5,25.1-4.61-1.46-2.3-11.19-11.56-22.88-12.92-4.84-.57-10.03.02-15.42,1.74l-1.42.45.9-1.19c3.62-4.76,5.98-9.72,7.04-14.73,2.41-11.45-3.2-23.53-5.01-25.77-.94,2.43-4.72,11.52-12.33,22.31-5.23,7.42-.63,16.89,2.58,21.88l.27.42-.43.25c-.1.06-.19.11-.27.16Z"/>
                <path class="cls-28" d="M402.67,324.86c-8.61,0-15.85-9.21-16.21-9.67l-.29-.37.37-.29s.12-.09.34-.26c-3.23-3.52-9.34-11.65-5.52-19.37,5.73-11.56,7.44-20.53,7.45-20.62l.07-.4h.41c.22.02.54.13,1.24.89,2.64,2.87,7.94,11.84,7.45,21.2-.3,5.78-2.51,10.91-4.58,14.53,3.53-1.63,8.42-3.29,13.81-3.22,9.37.08,18,5.92,20.7,8.74.71.74.8,1.07.8,1.29v.41s-.42.05-.42.05c-.09.01-9.15,1.16-21.04,6.17-1.55.65-3.09.93-4.58.93ZM387.52,314.99c1.73,2.06,10.55,11.78,19.37,8.08,10.18-4.28,18.33-5.78,20.64-6.14-1.6-1.88-10.47-8.61-20.32-8.7h0c-.07,0-.15,0-.22,0-5.87,0-11.16,2.07-14.59,3.81l-1.52.78.91-1.45c2.21-3.54,4.92-9.09,5.26-15.44.52-9.75-5.55-18.95-7.44-20.78-.52,2.33-2.51,10.33-7.39,20.18-3.71,7.49,2.77,15.57,5.73,18.7l.37.4-.45.31c-.13.1-.25.18-.35.25Z"/>
                <path class="cls-24" d="M417.84,304.74c-6.58,0-12.8-5.58-13.13-5.88l-.35-.32.32-.35s0,0,0,0c-3.31-3.24-8.04-9.3-5.45-15.67,4.11-10.13,4.99-17.8,5-17.88l.04-.4.41-.02c.21,0,.5.07,1.15.68,2.42,2.27,7.48,9.54,7.65,17.51.07,3.33-.59,6.79-1.98,10.31,3.09-1.88,6.25-3.09,9.4-3.62h0c7.86-1.3,15.94,2.32,18.62,4.28.72.53.85.8.88,1.01l.06.4-.39.12c-.07.02-7.46,2.31-16.65,8.22-1.81,1.16-3.71,1.62-5.59,1.62ZM405.71,298.47c1.87,1.55,10.51,8.17,17.21,3.85,7.74-4.97,14.22-7.42,16.24-8.11-1.75-1.37-9.98-5.54-18.09-4.19h0c-3.46.58-6.93,2.02-10.31,4.29l-1.36.91.67-1.5c1.72-3.88,2.56-7.69,2.48-11.31-.17-8.13-5.66-15.37-7.47-16.96-.32,2.16-1.53,8.95-4.97,17.41-2.47,6.07,2.43,11.98,5.56,14.96l.35.33-.31.32Z"/>
                <path class="cls-27" d="M430.19,285.24c-5.69,0-11.1-5.27-11.38-5.55l-.32-.31.1-.12c-2.84-2.04-8.16-6.76-6.38-12.52,2.65-8.53,2.75-14.78,2.75-14.84v-.4s.4-.06.4-.06c.22-.04.51.02,1.27.59,1.89,1.43,7,6.63,7.86,13.35.47,3.66-.29,7.14-1.21,9.77,2.35-1.64,5.6-3.37,9.36-3.94,6.99-1.06,13.66,2.59,15.64,4.08.78.59.91.87.94,1.09l.05.4-.39.11c-.06.02-6.32,1.91-14.13,7-1.48.97-3.04,1.35-4.57,1.35ZM419.81,279.33c1.62,1.46,8.82,7.44,14.44,3.77,6.48-4.23,11.93-6.28,13.74-6.91-1.56-1.27-8.45-5.06-15.2-4.05-4.32.65-7.95,2.93-10.23,4.72l-1.42,1.12.7-1.67c1.09-2.6,2.27-6.6,1.73-10.81-.84-6.58-6-11.63-7.68-12.85-.11,1.92-.6,7.41-2.76,14.38-1.7,5.47,3.94,10.05,6.45,11.77l.45.31-.21.23Z"/>
              </g>
              <g>
                <path class="cls-23" d="M430.88,260.2c-2.59,5.08-5.44,10.01-8.53,14.78-3.06,4.79-6.45,9.36-10.01,13.77-7.02,8.84-15.25,16.83-24.13,23.79-4.45,3.48-9.07,6.72-13.87,9.67-14.27,8.8-30.39,15.29-46.32,20.78-10.75,3.69-21.68,6.92-32.61,10.42-1.36.44-2.72.89-4.09,1.35-9.57,3.19-19.07,6.77-28.15,11.17-5.21,2.53-10.39,5.22-15.33,8.23-5,2.96-9.78,6.31-14.36,9.88,0,0-3.39,2.74-3.39,2.74-7.66,6.2-14.73,14.35-20.01,22.81.27.39,1.94,1.13,2.26.77,6.47-7.15,12.71-14.37,20.48-20.06l3.5-2.35c4.69-3.06,9.48-5.95,14.46-8.52,5-2.58,10.05-5.12,15.24-7.29,5.14-2.28,10.38-4.37,15.65-6.4l3.96-1.52,3.98-1.48c2.66-.98,5.32-1.97,8-2.93,10.68-3.91,21.49-7.67,32.25-11.68,8.07-3,16.13-6.26,23.92-9.94,0,0,1.96-.92,1.96-.92,5.88-2.78,11.57-5.94,17.11-9.35l3.64-2.36c4.82-3.2,9.46-6.67,13.88-10.38,13.11-11.18,24.5-24.57,33.22-39.45,2.9-4.95,5.54-10.04,7.91-15.25l-.62-.29Z"/>
                <path class="cls-30" d="M212.04,410.95s-.07,0-.1,0c-.66-.04-1.92-.59-2.25-1.07l-.18-.26.16-.26c5.4-8.65,12.54-16.79,20.12-22.92l3.39-2.74c4.85-3.79,9.7-7.12,14.42-9.92,4.35-2.65,9.24-5.28,15.37-8.25,8.06-3.91,17.02-7.47,28.2-11.2l.54-.18c1.18-.39,2.36-.79,3.55-1.17,3.78-1.21,7.55-2.39,11.33-3.57,7-2.18,14.25-4.44,21.27-6.85,12.24-4.21,30.35-10.94,46.23-20.73,4.71-2.9,9.36-6.15,13.82-9.64,9.15-7.16,17.25-15.14,24.06-23.71,3.88-4.79,7.14-9.28,9.99-13.73,3.08-4.75,5.94-9.71,8.51-14.74l.21-.41,1.45.69-.19.42c-2.37,5.21-5.04,10.35-7.94,15.3-8.67,14.79-19.88,28.1-33.32,39.57-4.48,3.75-9.17,7.26-13.93,10.42l-3.65,2.36c-6.01,3.7-11.63,6.77-17.16,9.38h0c-.18.09-.65.31-1.95.93-6.98,3.3-14.82,6.55-23.95,9.95-6.18,2.3-12.47,4.55-18.56,6.73-4.58,1.64-9.15,3.28-13.69,4.94-2.47.89-4.92,1.79-7.37,2.7l-4.6,1.71-3.95,1.52c-4.72,1.82-10.26,4.01-15.63,6.39-4.91,2.06-9.63,4.4-15.22,7.28-4.49,2.32-9.21,5.1-14.42,8.49l-3.49,2.35c-7,5.13-12.64,11.39-18.61,18.01l-1.78,1.97c-.15.17-.37.25-.65.25ZM210.7,409.52c.38.23,1.04.47,1.35.49l1.72-1.91c5.74-6.37,11.68-12.96,18.77-18.15l3.51-2.36c5.24-3.42,9.99-6.21,14.51-8.55,5.61-2.89,10.35-5.24,15.28-7.31,5.38-2.39,10.94-4.58,15.67-6.41l8.57-3.24c2.45-.91,4.91-1.82,7.38-2.7,4.55-1.66,9.12-3.3,13.7-4.94,6.08-2.18,12.37-4.43,18.55-6.73,9.11-3.39,16.92-6.63,23.88-9.92,0,0,1.89-.89,1.95-.92,5.51-2.6,11.09-5.65,17.07-9.33l3.63-2.35c4.73-3.14,9.39-6.62,13.84-10.35,13.36-11.39,24.5-24.62,33.11-39.32,1.89-3.23,3.69-6.55,5.37-9.92-1.83,3.29-3.77,6.52-5.8,9.66-2.86,4.48-6.15,9-10.04,13.81-6.85,8.62-15,16.66-24.21,23.86-4.49,3.52-9.17,6.78-13.91,9.7-15.96,9.84-34.13,16.6-46.42,20.82-7.04,2.42-14.29,4.68-21.3,6.86-3.77,1.18-7.54,2.35-11.32,3.56-1.18.38-2.36.77-3.54,1.17l-.54.18c-11.14,3.71-20.07,7.26-28.09,11.15-6.1,2.96-10.96,5.57-15.29,8.21-4.69,2.78-9.5,6.09-14.32,9.85l-3.38,2.74c-7.39,5.99-14.37,13.91-19.69,22.34Z"/>
              </g>
              <g>
                <path class="cls-14" d="M439.78,258.67c4.95-6.95,4.99-16.19,4.45-16.55,0,0-1.93,3.24-9.96,8.79-6.79,4.7-7.27,17.64-7.27,17.64,0,0,7.83-2.92,12.77-9.88Z"/>
                <path class="cls-31" d="M426.51,269.24l.03-.71c.02-.54.56-13.23,7.47-18.01,7.81-5.4,9.8-8.61,9.82-8.65l.26-.43.41.28c.18.12.28.32.35.69.32,1.75-.02,9.99-4.67,16.53-4.98,6.99-12.67,9.93-12.99,10.05l-.66.25ZM443.99,243.23c-1.08,1.33-3.74,4.11-9.45,8.06-5.59,3.87-6.78,13.72-7.01,16.52,2-.89,7.91-3.86,11.87-9.42,3.95-5.55,4.73-12.67,4.6-15.16Z"/>
              </g>
            </g>
          </g>
          <g>
            <g>
              <path class="cls-29" d="M191.57,369.28c6.07-.71,11.89.01,16.86,1.22-3.81-2.53-7.69-5.8-10.96-9.94-10.57-13.4-10.31-32.82-9.11-33.73,0,0,9.9,9.74,27.25,19.42,14.68,8.2,9.44,31.91,9.44,31.91,0,0-.86-.21-2.29-.69-2.98,4.15-14.61,18.72-28.53,14.75-19.1-5.46-32.99-5.61-32.99-5.61-.21-1.49,13.37-15.37,30.33-17.34Z"/>
              <path class="cls-13" d="M151.36,352.3c16.95-1.97,31.94,7.12,31.94,7.12,0,0-13.11,20.45-29.27,15.83-19.1-5.46-32.99-5.61-32.99-5.61-.21-1.49,13.37-15.37,30.33-17.34Z"/>
              <path class="cls-4" d="M113.74,339.27c5.95-.69,11.62.32,16.18,1.71-3.58-2.6-7.55-6.29-10.35-11.18-6.4-11.19-3.75-25.83-2.72-26.4,0,0,6.36,8.35,18.42,17.41,8.62,6.47,4.97,19.87,3.62,23.89.91.49,1.42.81,1.42.81,0,0-10.82,17.56-24.28,13.53-15.9-4.77-27.44-4.94-27.44-4.94-.18-1.28,11.06-13.19,25.15-14.82Z"/>
              <path class="cls-6" d="M82.14,322.43c5.78-.67,11.27.38,15.62,1.76-2.84-3.75-5.85-8.87-7.12-14.92-2.72-12.95,4.49-26.43,5.68-26.65,0,0,3.58,10.17,12.51,22.83,5.43,7.7.59,17.5-2.57,22.41.45.26.7.41.7.41,0,0-10.1,16.4-22.66,12.63-14.84-4.45-25.62-4.62-25.62-4.62-.17-1.2,10.33-12.31,23.48-13.84Z"/>
              <path class="cls-7" d="M62.82,306.57c5.95-.05,11.3,1.96,15.03,3.86-2.26-3.61-4.99-9.22-5.33-15.67-.59-11.2,7.21-21.55,8.23-21.58,0,0,1.67,8.98,7.49,20.75,3.83,7.73-2.7,15.94-5.81,19.23.48.34.76.56.76.56,0,0-9.99,12.9-20.23,8.59-12.1-5.09-21.17-6.2-21.17-6.2-.03-1.02,9.81-9.44,21.03-9.54Z"/>
              <path class="cls-5" d="M49.04,288.37c4.16.69,7.77,2.53,10.5,4.36-1.37-3.08-2.62-7.11-2.52-11.52.2-9.51,7.44-17.76,8.31-17.72,0,0,.85,7.7,5.03,18.01,2.61,6.44-2.7,12.65-5.67,15.48.21.22.32.34.32.34,0,0-10.23,9.31-18.15,4.22-9.36-6.02-16.77-8.27-16.77-8.27.12-.86,9.57-6.45,18.95-4.89Z"/>
              <path class="cls-3" d="M50.73,278c.1.1.16.18.16.18,0,0-8.62,8.54-15.36,4.14-7.97-5.2-14.25-7.06-14.25-7.06.1-.77,8.08-5.97,16.04-4.76,4.37.66,8.03,2.91,10.45,4.81-1.14-2.73-2.31-6.77-1.76-11.05.98-7.65,7.85-13.64,8.59-13.53,0,0,.07,6.28,2.77,14.98,1.79,5.76-4.02,10.5-6.63,12.3Z"/>
              <path class="cls-10" d="M194.1,392.69c-18.82-5.38-32.73-5.59-32.87-5.59h-.41s-.06-.41-.06-.41c-.04-.26.03-.66.81-1.66,3.39-4.38,15.64-14.55,29.93-16.21,4.66-.54,9.6-.3,14.69.71-3.55-2.6-6.61-5.5-9.1-8.67-8.91-11.31-10.35-27.16-9.63-32.65.16-1.25.4-1.59.61-1.74l.33-.24.29.29c.1.1,10.06,9.81,27.15,19.35,14.82,8.27,9.72,32.19,9.67,32.43l-.1.47-.47-.12s-.76-.19-2-.59c-3.08,4.22-12.31,15.35-23.87,15.35-1.62,0-3.28-.22-4.97-.7ZM222.91,377.04c.78.26,1.39.44,1.78.55.63-3.4,3.76-23.62-9.3-30.91-15.11-8.43-24.69-17.01-26.88-19.05-.78,3.19-.19,20.56,9.34,32.64,2.88,3.66,6.53,6.97,10.85,9.84l2.23,1.49-2.61-.63c-5.82-1.41-11.43-1.82-16.7-1.21h0c-15.35,1.78-28.12,13.71-29.74,16.42,2.94.11,15.81.84,32.48,5.61,13.51,3.86,24.86-10.17,28.01-14.57l.2-.28.33.11Z"/>
              <path class="cls-12" d="M153.89,375.7c-18.82-5.38-32.73-5.59-32.87-5.59h-.41s-.06-.41-.06-.41c-.04-.26.03-.66.81-1.66,3.39-4.38,15.64-14.55,29.94-16.21,16.93-1.97,32.09,7.09,32.24,7.19l.41.25-.26.41c-.03.05-3.38,5.22-8.66,9.75-5.38,4.61-10.91,6.96-16.24,6.96-1.66,0-3.29-.23-4.9-.69ZM151.41,352.77c-15.35,1.78-28.12,13.71-29.74,16.42,2.94.11,15.81.84,32.48,5.61,14.38,4.1,26.5-12.37,28.47-15.22-2.56-1.44-16.19-8.55-31.21-6.81Z"/>
              <path class="cls-8" d="M115.9,359.49c-15.64-4.69-27.2-4.92-27.31-4.92h-.41s-.06-.41-.06-.41c-.04-.25.03-.64.8-1.64,3.01-3.89,13.03-12.36,24.76-13.72,4.44-.52,9.14-.15,14.01,1.07-3.61-2.94-6.48-6.24-8.54-9.84-5.34-9.33-4.54-21.24-3.32-25.55.32-1.11.57-1.38.78-1.5l.36-.19.25.32c.06.08,6.45,8.4,18.33,17.32,8.61,6.47,5.35,19.58,3.91,24.04.71.39,1.1.63,1.1.63l.4.25-.25.4c-.1.16-8.99,14.35-20.65,14.35-1.35,0-2.74-.19-4.16-.62ZM138.67,345.12l-.35-.19.13-.38c1.3-3.89,4.91-17.08-3.46-23.36-10.26-7.7-16.48-14.99-18.1-16.97-1.03,2.63-2.67,15.3,3.09,25.35,2.35,4.1,5.78,7.82,10.21,11.03l2.29,1.66-2.7-.83c-5.58-1.71-10.96-2.28-15.98-1.7h0c-12.71,1.47-23.09,11.48-24.56,13.9,2.64.12,13.24.84,26.93,4.94,11.82,3.54,21.76-10.35,23.48-12.92-.23-.14-.56-.32-.98-.55Z"/>
              <path class="cls-11" d="M84.15,341.34c-14.6-4.38-25.38-4.59-25.49-4.6h-.41s-.06-.41-.06-.41c-.03-.24.03-.61.75-1.55,2.81-3.63,12.17-11.55,23.13-12.83h0c4.56-.52,9.42-.07,14.45,1.36-3.23-4.52-5.37-9.21-6.36-13.96-2.27-10.8,2.27-22.18,4.82-26.01.66-.99.99-1.17,1.23-1.21l.4-.07.13.38c.04.1,3.66,10.25,12.45,22.72,5.41,7.66,1.02,17.23-2.29,22.52.19.11.29.17.29.17l.4.25-.25.4c-.09.15-8.4,13.41-19.31,13.41-1.26,0-2.57-.18-3.89-.58ZM106.01,328.26l-.43-.25.27-.42c3.21-4.99,7.81-14.46,2.58-21.88-7.61-10.79-11.39-19.89-12.33-22.31-1.8,2.24-7.41,14.32-5.01,25.77,1.05,5.02,3.42,9.97,7.04,14.73l.9,1.19-1.42-.45c-5.39-1.72-10.58-2.31-15.42-1.74-11.69,1.36-21.41,10.62-22.88,12.92,2.55.12,12.41.8,25.1,4.61,10.98,3.28,20.21-9.55,21.86-12.02-.08-.05-.17-.1-.27-.16Z"/>
              <path class="cls-2" d="M62.77,322.75c-11.89-5-20.95-6.16-21.04-6.17l-.4-.05v-.41c-.02-.22.07-.55.78-1.29,2.71-2.82,11.33-8.66,20.7-8.74,5.39-.07,10.29,1.59,13.81,3.22-2.07-3.62-4.27-8.74-4.58-14.53-.49-9.36,4.8-18.33,7.45-21.2.7-.76,1.02-.87,1.24-.87h.41s.07.39.07.39c.02.09,1.73,9.06,7.45,20.62,3.82,7.72-2.3,15.85-5.52,19.37.22.16.34.26.34.26l.37.29-.29.37c-.36.46-7.6,9.67-16.21,9.67-1.5,0-3.03-.28-4.58-.93ZM82.16,313.55l-.45-.31.38-.4c2.96-3.13,9.44-11.21,5.73-18.7-4.88-9.85-6.87-17.85-7.39-20.18-1.89,1.83-7.95,11.03-7.44,20.78.34,6.36,3.04,11.91,5.26,15.44l.91,1.45-1.52-.78c-3.42-1.75-8.71-3.81-14.59-3.81-.07,0-.15,0-.22,0h0c-9.85.09-18.72,6.82-20.32,8.7,2.31.36,10.45,1.85,20.64,6.14,8.82,3.71,17.64-6.02,19.37-8.08-.1-.07-.22-.16-.35-.25Z"/>
              <path class="cls-9" d="M46.6,301.94c-9.19-5.91-16.58-8.2-16.65-8.22l-.39-.12.06-.4c.03-.21.16-.48.88-1.01,2.68-1.96,10.76-5.59,18.62-4.28h0c3.16.52,6.31,1.74,9.4,3.62-1.38-3.52-2.05-6.99-1.98-10.31.17-7.97,5.23-15.24,7.65-17.51.65-.61.95-.68,1.15-.68l.41.02.04.4c0,.08.89,7.75,5,17.88,2.59,6.37-2.14,12.43-5.45,15.67,0,0,0,0,0,0l.32.35-.35.32c-.33.3-6.56,5.88-13.14,5.88-1.88,0-3.79-.45-5.59-1.62ZM64.02,296.97l.35-.33c3.14-2.98,8.03-8.88,5.56-14.96-3.44-8.46-4.65-15.25-4.97-17.41-1.8,1.59-7.29,8.83-7.47,16.96-.08,3.63.76,7.43,2.48,11.31l.67,1.5-1.36-.91c-3.38-2.27-6.85-3.72-10.31-4.29h0c-8.12-1.35-16.34,2.82-18.09,4.19,2.02.7,8.5,3.14,16.24,8.11,6.7,4.31,15.34-2.3,17.21-3.85l-.31-.32Z"/>
              <path class="cls-35" d="M35.26,282.71c-7.81-5.09-14.07-6.98-14.13-7l-.39-.11.05-.4c.03-.22.16-.5.94-1.09,1.98-1.49,8.65-5.14,15.64-4.08,3.76.57,7.01,2.3,9.36,3.94-.92-2.63-1.68-6.11-1.21-9.77.86-6.72,5.97-11.91,7.86-13.35.75-.57,1.05-.63,1.27-.59l.4.06v.4c0,.06.1,6.31,2.75,14.84,1.78,5.75-3.54,10.48-6.38,12.52l.1.12-.32.31c-.29.28-5.69,5.55-11.38,5.55-1.53,0-3.09-.38-4.57-1.35ZM50.01,277.91l.45-.31c2.5-1.72,8.14-6.3,6.45-11.77-2.16-6.96-2.65-12.46-2.76-14.38-1.68,1.22-6.84,6.27-7.68,12.85-.54,4.22.64,8.21,1.73,10.81l.7,1.67-1.42-1.12c-2.28-1.79-5.91-4.06-10.23-4.72-6.74-1.01-13.63,2.78-15.2,4.05,1.81.62,7.26,2.68,13.74,6.91,5.62,3.67,12.82-2.31,14.44-3.77l-.21-.23Z"/>
            </g>
            <g>
              <path class="cls-36" d="M39.15,259.02c2.59,5.08,5.44,10.01,8.53,14.78,3.06,4.79,6.45,9.36,10.01,13.77,7.02,8.84,15.25,16.83,24.13,23.79,4.45,3.48,9.07,6.72,13.87,9.67,14.27,8.8,30.39,15.29,46.32,20.78,10.75,3.69,21.68,6.92,32.61,10.42,1.36.44,2.72.89,4.09,1.35,9.57,3.19,19.07,6.77,28.15,11.17,5.21,2.53,10.39,5.22,15.33,8.23,5,2.96,9.78,6.31,14.36,9.88,0,0,3.39,2.74,3.39,2.74,7.66,6.2,14.73,14.35,20.01,22.81-.27.39-1.94,1.13-2.26.77-6.47-7.15-12.71-14.37-20.48-20.06l-3.5-2.35c-4.69-3.06-9.48-5.95-14.46-8.52-5-2.58-10.05-5.12-15.24-7.29-5.14-2.28-10.38-4.37-15.65-6.4l-3.96-1.52-3.98-1.48c-2.66-.98-5.32-1.97-8-2.93-10.68-3.91-21.49-7.67-32.25-11.68-8.07-3-16.13-6.26-23.92-9.94,0,0-1.96-.92-1.96-.92-5.88-2.78-11.57-5.94-17.11-9.35l-3.64-2.36c-4.82-3.2-9.46-6.67-13.88-10.38-13.11-11.18-24.5-24.57-33.22-39.45-2.9-4.95-5.54-10.04-7.91-15.25l.62-.29Z"/>
              <path class="cls-33" d="M257.34,409.52l-1.78-1.97c-5.97-6.63-11.61-12.88-18.61-18.01l-3.49-2.35c-5.21-3.4-9.93-6.17-14.42-8.49-5.59-2.88-10.31-5.22-15.22-7.28-5.37-2.39-10.92-4.57-15.63-6.39l-3.95-1.52-4.6-1.71c-2.45-.91-4.9-1.82-7.37-2.7-4.55-1.66-9.12-3.3-13.69-4.94-6.09-2.18-12.38-4.44-18.56-6.73-9.14-3.4-16.97-6.65-23.95-9.95-1.31-.62-1.77-.84-1.95-.93h0c-5.54-2.61-11.15-5.68-17.16-9.38l-3.65-2.36c-4.76-3.16-9.45-6.66-13.93-10.42-13.44-11.47-24.65-24.78-33.32-39.57-2.9-4.94-5.57-10.09-7.94-15.3l-.19-.42,1.45-.69.21.41c2.57,5.04,5.43,10,8.51,14.74,2.84,4.45,6.11,8.94,9.99,13.73,6.81,8.57,14.9,16.55,24.06,23.71,4.46,3.49,9.11,6.74,13.82,9.64,15.88,9.79,33.99,16.52,46.23,20.73,7.03,2.41,14.27,4.67,21.27,6.85,3.77,1.18,7.55,2.36,11.33,3.57,1.18.38,2.36.77,3.55,1.17l.54.18c11.18,3.73,20.14,7.29,28.2,11.2,6.13,2.98,11.01,5.6,15.37,8.25,4.72,2.8,9.57,6.13,14.42,9.92l3.39,2.74c7.57,6.13,14.72,14.28,20.12,22.92l.16.26-.18.26c-.33.48-1.58,1.02-2.25,1.07-.04,0-.07,0-.1,0-.28,0-.5-.08-.65-.25ZM239.64,385.99l-3.38-2.74c-4.81-3.76-9.63-7.07-14.32-9.85-4.33-2.64-9.19-5.25-15.29-8.21-8.02-3.89-16.95-7.44-28.09-11.15l-.54-.18c-1.18-.39-2.36-.79-3.54-1.17-3.77-1.21-7.55-2.39-11.32-3.56-7.01-2.19-14.26-4.45-21.3-6.86-12.28-4.23-30.46-10.98-46.42-20.82-4.74-2.92-9.42-6.19-13.91-9.7-9.21-7.21-17.36-15.24-24.21-23.86-3.9-4.81-7.18-9.33-10.04-13.81-2.03-3.14-3.97-6.37-5.8-9.66,1.68,3.37,3.48,6.69,5.37,9.92,8.61,14.7,19.76,27.93,33.11,39.32,4.45,3.73,9.11,7.21,13.84,10.35l3.63,2.35c5.98,3.68,11.56,6.73,17.07,9.33.06.03,1.95.92,1.95.92,6.96,3.29,14.77,6.53,23.88,9.92,6.18,2.3,12.47,4.55,18.55,6.73,4.58,1.64,9.15,3.28,13.7,4.94,2.47.89,4.92,1.8,7.38,2.7l8.57,3.24c4.73,1.83,10.28,4.02,15.67,6.41,4.93,2.06,9.67,4.41,15.28,7.31,4.52,2.33,9.27,5.13,14.51,8.55l3.51,2.36c7.09,5.2,13.03,11.78,18.77,18.15l1.72,1.91c.3-.02.97-.26,1.35-.49-5.32-8.43-12.3-16.36-19.69-22.34Z"/>
            </g>
            <g>
              <path class="cls-34" d="M30.25,257.49c-4.95-6.95-4.99-16.19-4.45-16.55,0,0,1.93,3.24,9.96,8.79,6.79,4.7,7.27,17.64,7.27,17.64,0,0-7.83-2.92-12.77-9.88Z"/>
              <path class="cls-32" d="M42.86,267.81c-.33-.12-8.02-3.05-12.99-10.05-4.65-6.54-4.99-14.78-4.67-16.53.07-.36.17-.57.35-.69l.41-.28.26.43s2.01,3.25,9.82,8.65c6.91,4.78,7.45,17.47,7.47,18.01l.03.71-.66-.25ZM30.63,257.21c3.96,5.56,9.87,8.53,11.87,9.42-.23-2.8-1.42-12.65-7.01-16.52-5.71-3.95-8.37-6.74-9.45-8.06-.13,2.49.64,9.61,4.6,15.16Z"/>
            </g>
          </g>
        </g>
      </g>
    </g>
  </g>
</svg>