<svg id="Group_7" data-name="Group 7" xmlns="http://www.w3.org/2000/svg" xmlns:xlink="http://www.w3.org/1999/xlink" width="470" height="470" viewBox="0 0 470 470">
  <defs>
    <clipPath id="clip-path">
      <rect id="Rectangle_1" data-name="Rectangle 1" width="470" height="470" fill="none"/>
    </clipPath>
    <clipPath id="clip-path-2">
      <path id="Path_7" data-name="Path 7" d="M155.191,343.185c-10.931-10.828-13.645-28-13.256-31.261a144.2,144.2,0,0,0,29,15.623c13.855,5.642,13.221,26.087,13.01,29.541-2.9-.454-18.02-3.266-28.758-13.9M141.367,310.82c-.189.182-.384.54-.392,1.81-.035,5.543,3.329,21.1,13.551,31.227,12.1,11.987,29.627,14.22,29.8,14.241l.481.058.046-.481c.023-.246,2.16-24.6-13.56-31-18.123-7.38-29.2-15.8-29.312-15.886l-.323-.249Z" fill="none"/>
    </clipPath>
    <linearGradient id="linear-gradient" x1="-1.975" y1="2.548" x2="-1.96" y2="2.548" gradientUnits="objectBoundingBox">
      <stop offset="0" stop-color="#b37e10"/>
      <stop offset="0.225" stop-color="#e4c25c"/>
      <stop offset="0.328" stop-color="#f8dd7b"/>
      <stop offset="0.524" stop-color="#fdf1a4"/>
      <stop offset="0.73" stop-color="#f8dd7b"/>
      <stop offset="1" stop-color="#b37e10"/>
    </linearGradient>
  </defs>
  <g id="Group_2" data-name="Group 2">
    <g id="Group_1" data-name="Group 1" clip-path="url(#clip-path)">
      <path id="Path_1" data-name="Path 1" d="M470,235c0,129.787-105.213,235-235,235S0,364.787,0,235,105.213,0,235,0,470,105.213,470,235" fill="#0fc"/>
      <path id="Path_2" data-name="Path 2" d="M184.457,134.858l16.715,10.79,33.942-21.021,33.57,21.523,16.842-10.5-50.284-32.46Z" fill="#fff"/>
      <path id="Path_3" data-name="Path 3" d="M184.288,222.431l50.284,32.46,50.785-31.671-50.284-32.46Z" fill="#fff"/>
      <path id="Path_4" data-name="Path 4" d="M235.245,168.347,268.707,189.8l16.519-10.3-50.284-32.46L184.157,178.71l16.822,10.859Z" fill="#fff"/>
      <path id="Path_5" data-name="Path 5" d="M234.758,63.955a115,115,0,1,0,115,115,115,115,0,0,0-115-115m86.393,115.834L286.532,201.23l34.75,22.279L234.4,277.322,148.358,222.16l34.619-21.441-34.75-22.28L183.17,156.8l-34.643-22.211,86.887-53.812,86.037,55.162-34.943,21.641Z" fill="#fff"/>
      <path id="Path_6" data-name="Path 6" d="M154.859,343.521C142.733,331.509,140.615,312.2,141.7,311.16c0,0,11.019,8.455,29.421,15.949,15.575,6.342,13.268,30.52,13.268,30.52s-17.4-2.1-29.526-14.108" fill="#fff"/>
    </g>
  </g>
  <g id="Group_4" data-name="Group 4">
    <g id="Group_3" data-name="Group 3" clip-path="url(#clip-path-2)">
      <rect id="Rectangle_2" data-name="Rectangle 2" width="66.252" height="66.252" transform="translate(117.13 334.346) rotate(-45)" fill="url(#linear-gradient)"/>
    </g>
  </g>
  <g id="Group_6" data-name="Group 6">
    <g id="Group_5" data-name="Group 5" clip-path="url(#clip-path)">
      <path id="Path_8" data-name="Path 8" d="M315.172,344.7c12.126-12.012,14.243-31.318,13.163-32.361,0,0-11.019,8.455-29.421,15.949-15.575,6.342-13.268,30.52-13.268,30.52s17.4-2.1,29.526-14.108" fill="#fff"/>
      <path id="Path_9" data-name="Path 9" d="M285.221,359.338l-.046-.482c-.023-.246-2.159-24.6,13.56-31,18.123-7.38,29.2-15.8,29.312-15.887l.323-.248.294.283c.188.183.383.541.391,1.81.035,5.543-3.329,21.1-13.551,31.228-12.1,11.987-29.626,14.22-29.8,14.241ZM328.1,313.106a144.2,144.2,0,0,1-29,15.623c-13.855,5.642-13.22,26.086-13.01,29.541,2.9-.454,18.02-3.267,28.758-13.9,10.932-10.828,13.646-28,13.256-31.26" fill="#fff"/>
      <path id="Path_10" data-name="Path 10" d="M278.465,370.466a48.241,48.241,0,0,0-16.862,1.218,47.129,47.129,0,0,0,10.955-9.939c10.567-13.4,10.31-32.825,9.11-33.727,0,0-9.9,9.738-27.252,19.424-14.683,8.2-9.439,31.913-9.439,31.913s.856-.212,2.295-.689c2.978,4.147,14.615,18.724,28.529,14.748,19.1-5.461,32.993-5.608,32.993-5.608.207-1.487-13.375-15.372-30.329-17.34" fill="#fff"/>
      <path id="Path_11" data-name="Path 11" d="M318.675,353.481c-16.955-1.969-31.94,7.12-31.94,7.12s13.106,20.449,29.275,15.827c19.1-5.459,32.993-5.606,32.993-5.606.207-1.487-13.374-15.372-30.328-17.341" fill="#fff"/>
      <path id="Path_12" data-name="Path 12" d="M356.294,340.453a40,40,0,0,0-16.177,1.714,36.631,36.631,0,0,0,10.346-11.182c6.4-11.187,3.753-25.834,2.72-26.4,0,0-6.356,8.351-18.422,17.409-8.618,6.47-4.97,19.866-3.622,23.89-.91.491-1.416.808-1.416.808s10.82,17.563,24.275,13.526c15.9-4.769,27.442-4.944,27.442-4.944.177-1.281-11.062-13.19-25.146-14.825" fill="#fff"/>
      <path id="Path_13" data-name="Path 13" d="M387.891,323.614a37.67,37.67,0,0,0-15.616,1.758,38.117,38.117,0,0,0,7.125-14.924c2.725-12.954-4.489-26.432-5.676-26.655,0,0-3.575,10.168-12.507,22.83-5.433,7.7-.588,17.5,2.569,22.407-.453.257-.7.413-.7.413s10.1,16.4,22.664,12.628c14.842-4.453,25.619-4.616,25.619-4.616.166-1.2-10.327-12.314-23.476-13.841" fill="#fff"/>
      <path id="Path_14" data-name="Path 14" d="M407.214,307.754a33.08,33.08,0,0,0-15.031,3.862,33.669,33.669,0,0,0,5.328-15.669c.592-11.2-7.206-21.545-8.228-21.577a88.308,88.308,0,0,1-7.495,20.747c-3.826,7.726,2.7,15.936,5.812,19.229-.482.34-.761.557-.761.557s9.991,12.9,20.234,8.595a88.276,88.276,0,0,1,21.169-6.2c.032-1.023-9.811-9.444-21.028-9.544" fill="#fff"/>
      <path id="Path_15" data-name="Path 15" d="M420.989,289.555a27.09,27.09,0,0,0-10.5,4.364,27.273,27.273,0,0,0,2.524-11.515c-.2-9.507-7.442-17.762-8.309-17.724a74.827,74.827,0,0,1-5.034,18.008c-2.615,6.436,2.7,12.654,5.673,15.477-.208.215-.32.34-.32.34s10.229,9.312,18.152,4.217a74.827,74.827,0,0,1,16.769-8.274c-.123-.859-9.574-6.45-18.954-4.893" fill="#fff"/>
      <path id="Path_16" data-name="Path 16" d="M419.3,279.178c-.1.1-.16.176-.16.176s8.623,8.539,15.364,4.142a60.667,60.667,0,0,1,14.254-7.061c-.1-.77-8.081-5.965-16.039-4.763a22.945,22.945,0,0,0-10.452,4.811,22.088,22.088,0,0,0,1.759-11.054c-.978-7.645-7.853-13.636-8.588-13.527a58.132,58.132,0,0,1-2.77,14.98c-1.786,5.758,4.017,10.5,6.632,12.3" fill="#fff"/>
      <path id="Path_17" data-name="Path 17" d="M270.955,394.57c-11.556,0-20.787-11.131-23.865-15.347-1.239.4-1.967.582-2,.591l-.471.116-.1-.473c-.054-.241-5.15-24.154,9.669-32.428,17.087-9.539,27.053-19.251,27.152-19.348l.29-.286.326.245c.209.158.446.488.609,1.743.715,5.5-.718,21.348-9.633,32.653a46.325,46.325,0,0,1-9.1,8.672A47.388,47.388,0,0,1,278.519,370c14.3,1.659,26.542,11.827,29.934,16.211.776,1,.844,1.4.808,1.665l-.057.4-.407.005c-.137,0-14.052.211-32.867,5.588a18.021,18.021,0,0,1-4.975.7m-23.5-16.462.2.282c3.156,4.394,14.507,18.427,28.015,14.569a144.144,144.144,0,0,1,32.484-5.607c-1.62-2.706-14.395-14.635-29.744-16.416a47.531,47.531,0,0,0-16.7,1.207l-2.606.633,2.232-1.486a46.564,46.564,0,0,0,10.846-9.839c9.528-12.084,10.122-29.459,9.337-32.645a144.263,144.263,0,0,1-26.877,19.048c-13.064,7.294-9.935,27.512-9.3,30.912.389-.109,1-.29,1.78-.549Z" fill="#fff"/>
      <path id="Path_18" data-name="Path 18" d="M311.24,377.57c-5.325,0-10.855-2.356-16.237-6.964a50.329,50.329,0,0,1-8.665-9.75l-.261-.408.413-.251c.152-.091,15.31-9.153,32.24-7.186,14.3,1.661,26.544,11.829,29.936,16.212.775,1,.842,1.4.806,1.664l-.056.4-.408,0c-.137,0-14.052.212-32.867,5.589a17.776,17.776,0,0,1-4.9.687m-23.828-16.812c1.968,2.848,14.09,19.318,28.469,15.217a144.174,144.174,0,0,1,32.484-5.608c-1.621-2.7-14.4-14.633-29.744-16.416-15.02-1.746-28.645,5.37-31.209,6.807" fill="#fff"/>
      <path id="Path_19" data-name="Path 19" d="M349.973,361.292c-11.665,0-20.555-14.187-20.653-14.347l-.246-.4.4-.249s.388-.243,1.1-.633c-1.437-4.46-4.7-17.574,3.911-24.041a101.974,101.974,0,0,0,18.33-17.319l.246-.323.356.194c.211.116.469.382.785,1.495,1.222,4.307,2.019,16.22-3.321,25.551a35.453,35.453,0,0,1-8.537,9.836,38.937,38.937,0,0,1,14.012-1.073c11.733,1.363,21.747,9.835,24.759,13.724.767.992.836,1.384.8,1.636l-.056.4-.4.006a112.332,112.332,0,0,0-27.314,4.924,14.379,14.379,0,0,1-4.16.617m-19.587-14.441c1.718,2.571,11.653,16.459,23.476,12.919a117,117,0,0,1,26.935-4.942c-1.473-2.425-11.852-12.43-24.558-13.9a39.125,39.125,0,0,0-15.984,1.7l-2.7.826,2.286-1.661a35.77,35.77,0,0,0,10.215-11.034c5.752-10.052,4.115-22.713,3.087-25.348a106.8,106.8,0,0,1-18.1,16.974c-8.366,6.281-4.761,19.469-3.457,23.361l.126.378-.35.189c-.415.223-.743.409-.977.546" fill="#fff"/>
      <path id="Path_20" data-name="Path 20" d="M381.992,343.1c-10.908,0-19.218-13.259-19.31-13.409l-.246-.4.4-.249s.1-.063.29-.175c-3.316-5.286-7.7-14.854-2.292-22.516a104.725,104.725,0,0,0,12.447-22.716l.135-.382.4.075c.24.045.574.224,1.233,1.21,2.552,3.823,7.089,15.211,4.817,26.006a37.341,37.341,0,0,1-6.364,13.964,37.123,37.123,0,0,1,14.448-1.365c10.963,1.274,20.32,9.191,23.135,12.826.725.935.788,1.308.755,1.55l-.056.4-.4.006a104.825,104.825,0,0,0-25.492,4.6,13.466,13.466,0,0,1-3.891.577m-18.243-13.5c1.652,2.466,10.881,15.305,21.863,12.021a109.422,109.422,0,0,1,25.1-4.613c-1.462-2.3-11.187-11.564-22.877-12.922a36.7,36.7,0,0,0-15.419,1.739l-1.423.453.9-1.19a37.106,37.106,0,0,0,7.039-14.734c2.407-11.446-3.2-23.526-5.005-25.769A109.51,109.51,0,0,1,361.6,306.9c-5.231,7.415-.629,16.891,2.581,21.878l.27.42-.434.247c-.1.057-.192.109-.271.156" fill="#fff"/>
      <path id="Path_21" data-name="Path 21" d="M402.673,324.864c-8.605,0-15.853-9.212-16.209-9.671l-.288-.371.371-.29s.12-.1.34-.257c-3.225-3.518-9.344-11.653-5.522-19.368a88.742,88.742,0,0,0,7.452-20.624l.074-.4.4.011c.222.009.543.118,1.24.875,2.643,2.874,7.941,11.838,7.446,21.2A33.323,33.323,0,0,1,393.4,310.5a32.545,32.545,0,0,1,13.815-3.217c9.374.083,18,5.924,20.7,8.739.713.743.8,1.069.8,1.291l-.013.4-.4.05a88.718,88.718,0,0,0-21.042,6.167,11.73,11.73,0,0,1-4.584.93m-15.156-9.878c1.733,2.057,10.548,11.785,19.373,8.076a93.131,93.131,0,0,1,20.636-6.138c-1.6-1.88-10.472-8.61-20.318-8.7h-.224a32.989,32.989,0,0,0-14.587,3.81l-1.521.777.9-1.448a33.269,33.269,0,0,0,5.258-15.443c.515-9.749-5.546-18.946-7.437-20.778a93.3,93.3,0,0,1-7.39,20.182c-3.709,7.487,2.772,15.568,5.731,18.7l.375.4-.446.314c-.135.1-.254.181-.355.254" fill="#fff"/>
      <path id="Path_22" data-name="Path 22" d="M417.838,304.735c-6.576,0-12.8-5.577-13.135-5.88l-.348-.318.316-.349.006-.007c-3.308-3.238-8.035-9.3-5.446-15.671a75.081,75.081,0,0,0,5-17.881l.045-.4.4-.019c.208,0,.5.067,1.154.68,2.422,2.27,7.478,9.536,7.648,17.507a26.691,26.691,0,0,1-1.976,10.312,26.481,26.481,0,0,1,9.4-3.617c7.862-1.3,15.94,2.322,18.619,4.284.722.529.849.8.88,1.009l.057.4-.388.118a75.142,75.142,0,0,0-16.649,8.218,10.15,10.15,0,0,1-5.593,1.616m-12.132-6.266c1.869,1.553,10.511,8.166,17.213,3.854a79.445,79.445,0,0,1,16.239-8.112c-1.754-1.37-9.976-5.542-18.091-4.19a26.33,26.33,0,0,0-10.315,4.291l-1.361.914.665-1.5a26.493,26.493,0,0,0,2.483-11.313c-.172-8.133-5.66-15.371-7.465-16.961a79.58,79.58,0,0,1-4.968,17.414c-2.467,6.074,2.426,11.977,5.562,14.956l.346.327Z" fill="#fff"/>
      <path id="Path_23" data-name="Path 23" d="M430.193,285.242c-5.693,0-11.1-5.269-11.381-5.552l-.318-.315.1-.116c-2.836-2.039-8.159-6.765-6.375-12.518a58.135,58.135,0,0,0,2.747-14.844l.005-.4.4-.059c.215-.038.513.018,1.267.589,1.895,1.434,7,6.627,7.862,13.345a21.718,21.718,0,0,1-1.209,9.772,22.618,22.618,0,0,1,9.36-3.937c6.987-1.06,13.659,2.589,15.638,4.082.781.589.914.871.943,1.088l.051.4-.386.114a60.935,60.935,0,0,0-14.13,7,8.22,8.22,0,0,1-4.574,1.35m-10.384-5.915c1.618,1.459,8.819,7.439,14.441,3.772a64.848,64.848,0,0,1,13.738-6.907c-1.562-1.274-8.453-5.064-15.2-4.053a22.587,22.587,0,0,0-10.229,4.716l-1.425,1.118.7-1.672a21.671,21.671,0,0,0,1.727-10.812c-.841-6.576-6-11.63-7.679-12.845a62.315,62.315,0,0,1-2.759,14.378c-1.7,5.465,3.944,10.048,6.448,11.766l.449.308Z" fill="#fff"/>
      <path id="Path_24" data-name="Path 24" d="M430.878,260.2a165.529,165.529,0,0,1-8.529,14.784,151.116,151.116,0,0,1-10.014,13.772,145.123,145.123,0,0,1-24.133,23.79,151.381,151.381,0,0,1-13.868,9.673c-14.271,8.8-30.385,15.293-46.323,20.777-10.748,3.689-21.685,6.924-32.606,10.424-1.363.437-2.725.894-4.087,1.349a233.512,233.512,0,0,0-28.146,11.174c-5.208,2.529-10.388,5.22-15.333,8.231a136.842,136.842,0,0,0-14.361,9.883L230.09,386.8a94.38,94.38,0,0,0-20.011,22.806c.271.394,1.94,1.127,2.261.773,6.474-7.153,12.709-14.366,20.477-20.056l3.495-2.352a165.7,165.7,0,0,1,14.463-8.519c5-2.578,10.054-5.118,15.243-7.292,5.141-2.284,10.384-4.365,15.654-6.4l3.956-1.521,3.978-1.483c2.658-.984,5.32-1.972,8-2.932,10.683-3.91,21.491-7.675,32.252-11.677,8.073-3,16.129-6.257,23.917-9.936l1.956-.924a177.42,177.42,0,0,0,17.107-9.352l3.643-2.359a151.1,151.1,0,0,0,47.1-49.828,166.736,166.736,0,0,0,7.914-15.252Z" fill="#fff"/>
      <path id="Path_25" data-name="Path 25" d="M212.039,410.949l-.1,0a3.962,3.962,0,0,1-2.246-1.068l-.176-.256.164-.263a94.837,94.837,0,0,1,20.116-22.923l3.388-2.744a137.791,137.791,0,0,1,14.417-9.921c4.355-2.653,9.24-5.275,15.367-8.251a231.168,231.168,0,0,1,28.2-11.2l.545-.182c1.182-.395,2.363-.789,3.546-1.168,3.777-1.211,7.555-2.39,11.326-3.567,7-2.185,14.245-4.443,21.272-6.854,12.24-4.212,30.35-10.944,46.228-20.734a151.421,151.421,0,0,0,13.824-9.642,144.228,144.228,0,0,0,24.056-23.712,149.873,149.873,0,0,0,9.985-13.732,165.874,165.874,0,0,0,8.507-14.745l.209-.41,1.451.694-.192.422a168.327,168.327,0,0,1-7.936,15.3,151.556,151.556,0,0,1-47.249,49.982l-3.647,2.36a176.691,176.691,0,0,1-17.162,9.383l0-.007c-.181.094-.648.314-1.953.932-6.983,3.3-14.819,6.555-23.954,9.952-6.183,2.3-12.475,4.554-18.561,6.735q-6.867,2.46-13.7,4.942c-2.468.885-4.92,1.794-7.369,2.7l-4.6,1.713-3.952,1.521c-4.715,1.821-10.26,4.005-15.631,6.392-4.909,2.056-9.633,4.4-15.219,7.28a165.284,165.284,0,0,0-14.421,8.494l-3.49,2.349c-7,5.128-12.641,11.386-18.613,18.012l-1.776,1.969a.843.843,0,0,1-.653.249m-1.343-1.433a3.97,3.97,0,0,0,1.347.49l1.723-1.908c5.741-6.369,11.677-12.956,18.771-18.153l3.511-2.364a166.4,166.4,0,0,1,14.51-8.545c5.607-2.893,10.349-5.243,15.278-7.308,5.381-2.392,10.94-4.581,15.666-6.407l8.567-3.238c2.451-.908,4.907-1.818,7.375-2.7q6.819-2.5,13.7-4.944c6.082-2.179,12.372-4.433,18.55-6.731,9.109-3.388,16.92-6.633,23.878-9.92,0,0,1.894-.895,1.953-.924a175.493,175.493,0,0,0,17.065-9.328l3.634-2.352a150.623,150.623,0,0,0,46.951-49.67c1.895-3.233,3.692-6.554,5.371-9.923-1.825,3.286-3.765,6.517-5.8,9.656A151.163,151.163,0,0,1,412.7,289.056a145.191,145.191,0,0,1-24.21,23.864,152.555,152.555,0,0,1-13.911,9.7c-15.959,9.838-34.135,16.6-46.418,20.822-7.039,2.415-14.287,4.677-21.3,6.863-3.769,1.176-7.544,2.354-11.319,3.564-1.179.379-2.357.772-3.535,1.165l-.545.182a229.86,229.86,0,0,0-28.09,11.152c-6.1,2.96-10.96,5.57-15.294,8.209a136.956,136.956,0,0,0-14.315,9.852l-3.382,2.738A93.847,93.847,0,0,0,210.7,409.516" fill="#fff"/>
      <path id="Path_26" data-name="Path 26" d="M439.782,258.67c4.949-6.954,4.99-16.188,4.448-16.553,0,0-1.932,3.241-9.956,8.792-6.791,4.7-7.266,17.639-7.266,17.639a30.686,30.686,0,0,0,12.774-9.878" fill="#fff"/>
      <path id="Path_27" data-name="Path 27" d="M426.509,269.239l.025-.708c.021-.538.565-13.233,7.471-18.011,7.806-5.4,9.8-8.614,9.82-8.645l.257-.426.412.276a.966.966,0,0,1,.346.689c.317,1.75-.021,9.993-4.673,16.531a30.83,30.83,0,0,1-12.994,10.046Zm17.484-26.006c-1.085,1.327-3.741,4.115-9.451,8.064-5.591,3.87-6.784,13.723-7.012,16.519A30.319,30.319,0,0,0,439.4,258.4a27.281,27.281,0,0,0,4.6-15.163" fill="#fff"/>
      <path id="Path_28" data-name="Path 28" d="M191.566,369.284a48.249,48.249,0,0,1,16.863,1.218,47.133,47.133,0,0,1-10.956-9.939c-10.567-13.4-10.31-32.825-9.11-33.727,0,0,9.9,9.738,27.252,19.424,14.683,8.2,9.439,31.913,9.439,31.913s-.856-.212-2.295-.689c-2.978,4.147-14.615,18.724-28.528,14.748-19.1-5.461-32.993-5.608-32.993-5.608-.207-1.487,13.374-15.372,30.328-17.34" fill="#fff"/>
      <path id="Path_29" data-name="Path 29" d="M151.355,352.3c16.955-1.969,31.94,7.12,31.94,7.12s-13.106,20.449-29.275,15.828c-19.105-5.46-32.993-5.607-32.993-5.607-.207-1.487,13.374-15.372,30.328-17.341" fill="#fff"/>
      <path id="Path_30" data-name="Path 30" d="M113.737,339.271a40,40,0,0,1,16.177,1.714A36.631,36.631,0,0,1,119.568,329.8c-6.4-11.187-3.753-25.834-2.72-26.4,0,0,6.356,8.351,18.422,17.41,8.618,6.469,4.97,19.865,3.622,23.889.91.491,1.416.808,1.416.808s-10.82,17.563-24.275,13.527c-15.9-4.769-27.442-4.945-27.442-4.945-.177-1.281,11.062-13.19,25.146-14.825" fill="#fff"/>
      <path id="Path_31" data-name="Path 31" d="M82.139,322.432a37.67,37.67,0,0,1,15.616,1.758,38.118,38.118,0,0,1-7.125-14.924c-2.725-12.954,4.489-26.432,5.676-26.655,0,0,3.575,10.168,12.507,22.831,5.433,7.7.588,17.5-2.569,22.407.453.256.7.412.7.412s-10.1,16.4-22.664,12.628c-14.842-4.452-25.619-4.616-25.619-4.616-.166-1.2,10.327-12.314,23.476-13.841" fill="#fff"/>
      <path id="Path_32" data-name="Path 32" d="M62.817,306.572a33.08,33.08,0,0,1,15.031,3.862,33.657,33.657,0,0,1-5.328-15.669c-.592-11.2,7.205-21.545,8.227-21.577a88.344,88.344,0,0,0,7.5,20.747c3.826,7.726-2.7,15.936-5.812,19.229.482.34.76.557.76.557s-9.99,12.9-20.233,8.6a88.277,88.277,0,0,0-21.169-6.2c-.032-1.023,9.811-9.444,21.028-9.544" fill="#fff"/>
      <path id="Path_33" data-name="Path 33" d="M49.042,288.373a27.09,27.09,0,0,1,10.5,4.364,27.272,27.272,0,0,1-2.524-11.515c.2-9.507,7.442-17.762,8.309-17.724a74.827,74.827,0,0,0,5.034,18.008c2.615,6.436-2.7,12.654-5.674,15.477.209.215.321.339.321.339s-10.229,9.313-18.152,4.217a74.847,74.847,0,0,0-16.769-8.273c.123-.859,9.574-6.45,18.954-4.893" fill="#fff"/>
      <path id="Path_34" data-name="Path 34" d="M50.726,278c.095.1.16.176.16.176s-8.623,8.539-15.364,4.142a60.663,60.663,0,0,0-14.255-7.061c.1-.77,8.082-5.965,16.04-4.763A22.946,22.946,0,0,1,47.759,275.3,22.087,22.087,0,0,1,46,264.247c.978-7.645,7.853-13.636,8.59-13.527a58.067,58.067,0,0,0,2.768,14.98c1.787,5.758-4.017,10.5-6.631,12.3" fill="#fff"/>
      <path id="Path_35" data-name="Path 35" d="M194.1,392.686c-18.815-5.378-32.729-5.587-32.867-5.589l-.407,0-.057-.4c-.036-.261.032-.662.808-1.665,3.392-4.384,15.638-14.552,29.935-16.211a47.414,47.414,0,0,1,14.691.712,46.35,46.35,0,0,1-9.1-8.671c-8.915-11.306-10.348-27.158-9.633-32.653.163-1.255.4-1.586.609-1.744l.326-.245.29.286c.1.1,10.065,9.809,27.152,19.348,14.819,8.274,9.723,32.187,9.67,32.428l-.105.473-.47-.116c-.034-.009-.761-.19-2-.591-3.078,4.216-12.308,15.348-23.865,15.347a18.061,18.061,0,0,1-4.975-.7m28.808-15.651c.781.259,1.392.44,1.78.549.631-3.4,3.761-23.617-9.3-30.912a144.245,144.245,0,0,1-26.878-19.048c-.785,3.186-.19,20.561,9.338,32.645a46.525,46.525,0,0,0,10.846,9.839l2.232,1.486-2.606-.632a47.51,47.51,0,0,0-16.7-1.208c-15.35,1.781-28.125,13.71-29.744,16.416a144.16,144.16,0,0,1,32.484,5.607c13.507,3.858,24.859-10.175,28.014-14.569l.2-.282Z" fill="#fff"/>
      <path id="Path_36" data-name="Path 36" d="M153.89,375.7c-18.816-5.377-32.73-5.587-32.868-5.589l-.407,0-.056-.4c-.036-.261.031-.661.806-1.664,3.392-4.384,15.638-14.552,29.936-16.212,16.93-1.967,32.088,7.1,32.239,7.185l.414.251-.261.409a50.436,50.436,0,0,1-8.665,9.75c-5.383,4.608-10.912,6.964-16.238,6.964a17.769,17.769,0,0,1-4.9-.687m-2.48-22.932c-15.348,1.782-28.123,13.711-29.744,16.416a144.162,144.162,0,0,1,32.484,5.607c14.379,4.1,26.5-12.368,28.469-15.216-2.565-1.437-16.189-8.553-31.209-6.807" fill="#fff"/>
      <path id="Path_37" data-name="Path 37" d="M115.9,359.493a112.333,112.333,0,0,0-27.314-4.924l-.4-.007-.056-.4c-.035-.252.034-.644.8-1.637,3.012-3.888,13.026-12.36,24.759-13.723a38.937,38.937,0,0,1,14.012,1.073,35.447,35.447,0,0,1-8.536-9.836c-5.341-9.331-4.544-21.244-3.322-25.551.316-1.113.574-1.38.785-1.495l.356-.194.246.323a102.032,102.032,0,0,0,18.33,17.318c8.615,6.467,5.348,19.582,3.911,24.041.707.391,1.1.634,1.1.634l.4.249-.245.4c-.1.16-8.989,14.347-20.654,14.347a14.414,14.414,0,0,1-4.16-.617m22.77-14.37-.35-.189.127-.378c1.3-3.892,4.908-17.08-3.458-23.361a106.836,106.836,0,0,1-18.1-16.974c-1.028,2.634-2.665,15.3,3.088,25.347A35.746,35.746,0,0,0,130.192,340.6l2.286,1.661-2.7-.827a39.124,39.124,0,0,0-15.984-1.7c-12.706,1.475-23.085,11.48-24.558,13.9a117.084,117.084,0,0,1,26.935,4.943c11.823,3.539,21.758-10.348,23.476-12.919-.234-.137-.562-.323-.977-.546" fill="#fff"/>
      <path id="Path_38" data-name="Path 38" d="M84.148,341.341a104.827,104.827,0,0,0-25.492-4.6l-.406-.006-.055-.4c-.033-.242.03-.615.755-1.55,2.814-3.635,12.171-11.553,23.135-12.826a37.144,37.144,0,0,1,14.448,1.365,37.347,37.347,0,0,1-6.365-13.963c-2.271-10.8,2.266-22.184,4.818-26.006.658-.987.993-1.166,1.233-1.211l.4-.075.135.382A104.645,104.645,0,0,0,109.2,305.169c5.406,7.662,1.024,17.23-2.292,22.516.189.112.29.175.29.175l.4.249-.246.4c-.092.15-8.4,13.409-19.311,13.409a13.464,13.464,0,0,1-3.89-.577m21.863-13.082-.434-.247.27-.42c3.209-4.987,7.812-14.463,2.581-21.878A109.508,109.508,0,0,1,96.1,283.4c-1.8,2.243-7.413,14.323-5,25.769A37.1,37.1,0,0,0,98.132,323.9l.9,1.19-1.423-.453A36.7,36.7,0,0,0,82.194,322.9c-11.69,1.358-21.415,10.622-22.877,12.922a109.434,109.434,0,0,1,25.1,4.613c10.982,3.284,20.21-9.554,21.863-12.021-.08-.047-.17-.1-.271-.156" fill="#fff"/>
      <path id="Path_39" data-name="Path 39" d="M62.773,322.752a88.837,88.837,0,0,0-21.042-6.168l-.4-.048-.013-.406c-.007-.222.082-.549.8-1.291,2.706-2.816,11.327-8.656,20.7-8.739a32.545,32.545,0,0,1,13.815,3.217,33.336,33.336,0,0,1-4.58-14.527c-.495-9.364,4.8-18.327,7.447-21.2.7-.757,1.018-.866,1.239-.874l.4-.012.074.4a88.741,88.741,0,0,0,7.454,20.624c3.821,7.715-2.3,15.849-5.524,19.369.22.161.34.256.34.256l.371.289-.288.372c-.355.459-7.6,9.672-16.209,9.671a11.726,11.726,0,0,1-4.583-.93m19.385-9.2-.446-.314.375-.4c2.959-3.127,9.439-11.208,5.731-18.695a93.329,93.329,0,0,1-7.391-20.182c-1.891,1.832-7.951,11.029-7.436,20.778a33.261,33.261,0,0,0,5.257,15.443l.906,1.448-1.522-.776a32.968,32.968,0,0,0-14.587-3.811h-.224c-9.846.088-18.721,6.817-20.317,8.7A93.176,93.176,0,0,1,63.14,321.88c8.824,3.709,17.639-6.02,19.373-8.076l-.355-.254" fill="#fff"/>
      <path id="Path_40" data-name="Path 40" d="M46.6,301.937a75.225,75.225,0,0,0-16.65-8.219l-.388-.118.058-.4c.03-.211.158-.48.88-1.009,2.679-1.961,10.757-5.589,18.619-4.284a26.526,26.526,0,0,1,9.4,3.617,26.668,26.668,0,0,1-1.977-10.312c.17-7.971,5.226-15.236,7.648-17.506.655-.613.947-.677,1.155-.68l.4.019.044.4a75.164,75.164,0,0,0,5,17.882c2.589,6.373-2.138,12.433-5.447,15.671l.007.007.315.349-.348.318c-.333.3-6.558,5.88-13.135,5.88a10.144,10.144,0,0,1-5.592-1.616m17.417-4.969.345-.328c3.136-2.978,8.03-8.882,5.562-14.956a79.622,79.622,0,0,1-4.968-17.413c-1.8,1.59-7.292,8.828-7.465,16.961a26.5,26.5,0,0,0,2.483,11.313l.666,1.5-1.361-.915a26.334,26.334,0,0,0-10.315-4.29c-8.115-1.352-16.338,2.819-18.091,4.19a79.444,79.444,0,0,1,16.239,8.112c6.7,4.312,15.343-2.3,17.212-3.854Z" fill="#fff"/>
      <path id="Path_41" data-name="Path 41" d="M35.264,282.709a60.874,60.874,0,0,0-14.131-7l-.386-.115.052-.4c.028-.217.161-.5.942-1.088,1.979-1.493,8.651-5.142,15.638-4.082a22.617,22.617,0,0,1,9.36,3.937,21.72,21.72,0,0,1-1.209-9.772c.86-6.718,5.968-11.912,7.862-13.346.754-.57,1.052-.626,1.267-.588l.4.059,0,.4a58.136,58.136,0,0,0,2.747,14.844c1.784,5.753-3.538,10.479-6.375,12.517l.1.117-.317.315c-.287.283-5.689,5.551-11.382,5.551a8.211,8.211,0,0,1-4.573-1.35m14.745-4.8.45-.308c2.5-1.718,8.143-6.3,6.447-11.766a62.315,62.315,0,0,1-2.759-14.378c-1.682,1.215-6.837,6.269-7.678,12.845a21.663,21.663,0,0,0,1.726,10.812l.7,1.672-1.425-1.118a22.592,22.592,0,0,0-10.229-4.716c-6.742-1.011-13.634,2.779-15.195,4.053a64.843,64.843,0,0,1,13.738,6.907c5.622,3.667,12.822-2.313,14.44-3.772Z" fill="#fff"/>
      <path id="Path_42" data-name="Path 42" d="M39.152,259.021A165.569,165.569,0,0,0,47.681,273.8a151.239,151.239,0,0,0,10.014,13.771,145.046,145.046,0,0,0,24.133,23.79A151.184,151.184,0,0,0,95.7,321.039c14.271,8.8,30.385,15.294,46.323,20.778,10.748,3.688,21.685,6.923,32.606,10.423,1.363.438,2.725.9,4.087,1.349a233.356,233.356,0,0,1,28.146,11.175c5.208,2.528,10.388,5.22,15.333,8.231a136.982,136.982,0,0,1,14.361,9.882l3.388,2.745a94.356,94.356,0,0,1,20.011,22.8c-.271.394-1.94,1.128-2.261.773-6.474-7.152-12.709-14.366-20.477-20.055l-3.495-2.353a165.944,165.944,0,0,0-14.463-8.518c-5-2.579-10.054-5.119-15.243-7.292-5.141-2.285-10.384-4.366-15.654-6.4l-3.956-1.522-3.978-1.482c-2.658-.984-5.32-1.973-8-2.933-10.683-3.909-21.491-7.675-32.252-11.676-8.073-3-16.129-6.258-23.917-9.937l-1.956-.924a177.205,177.205,0,0,1-17.107-9.353L93.551,324.4a151.1,151.1,0,0,1-47.1-49.828,166.883,166.883,0,0,1-7.914-15.253Z" fill="#fff"/>
      <path id="Path_43" data-name="Path 43" d="M257.339,409.517l-1.777-1.968c-5.972-6.626-11.612-12.884-18.613-18.012l-3.489-2.349a164.931,164.931,0,0,0-14.422-8.494c-5.586-2.883-10.309-5.224-15.218-7.281-5.372-2.387-10.916-4.571-15.631-6.392l-3.953-1.521-4.6-1.713c-2.448-.907-4.9-1.815-7.369-2.7q-6.821-2.5-13.7-4.942c-6.085-2.18-12.378-4.435-18.56-6.735-9.136-3.4-16.971-6.652-23.954-9.952-1.306-.617-1.772-.837-1.953-.931l0,.006a176.767,176.767,0,0,1-17.161-9.382l-3.648-2.36A151.588,151.588,0,0,1,46.04,274.807a168.452,168.452,0,0,1-7.936-15.3l-.192-.421,1.451-.694.21.41a165.9,165.9,0,0,0,8.506,14.745,150.2,150.2,0,0,0,9.985,13.731A144.229,144.229,0,0,0,82.12,310.993a151.375,151.375,0,0,0,13.824,9.643c15.879,9.789,33.988,16.521,46.229,20.733,7.026,2.411,14.268,4.67,21.271,6.855,3.771,1.176,7.549,2.355,11.326,3.566,1.183.38,2.364.774,3.546,1.168l.545.182a231.076,231.076,0,0,1,28.2,11.2c6.127,2.975,11.012,5.6,15.367,8.251a137.984,137.984,0,0,1,14.417,9.92l3.388,2.745a94.809,94.809,0,0,1,20.115,22.922l.164.264-.176.255a3.95,3.95,0,0,1-2.246,1.068c-.035,0-.069,0-.1,0a.837.837,0,0,1-.653-.25m-17.7-23.528-3.382-2.739a136.943,136.943,0,0,0-14.315-9.851c-4.334-2.64-9.194-5.249-15.294-8.21a229.918,229.918,0,0,0-28.089-11.151l-.545-.182c-1.178-.394-2.357-.787-3.536-1.166-3.774-1.209-7.55-2.388-11.319-3.563-7.01-2.187-14.258-4.448-21.3-6.864-12.283-4.227-30.459-10.983-46.418-20.822a152.589,152.589,0,0,1-13.91-9.7,145.158,145.158,0,0,1-24.21-23.865,151.04,151.04,0,0,1-10.044-13.812c-2.032-3.139-3.972-6.37-5.8-9.655,1.68,3.368,3.477,6.689,5.372,9.923A150.581,150.581,0,0,0,93.807,324l3.634,2.352a175.638,175.638,0,0,0,17.065,9.329l1.953.923c6.958,3.288,14.77,6.533,23.879,9.921,6.178,2.3,12.467,4.551,18.55,6.731q6.871,2.463,13.7,4.943c2.469.886,4.924,1.8,7.376,2.7l8.567,3.237c4.726,1.826,10.284,4.016,15.666,6.407,4.928,2.065,9.671,4.415,15.277,7.308a166.281,166.281,0,0,1,14.51,8.546l3.511,2.364c7.094,5.2,13.031,11.783,18.772,18.152l1.722,1.909a3.959,3.959,0,0,0,1.347-.491,93.821,93.821,0,0,0-19.692-22.344" fill="#fff"/>
      <path id="Path_44" data-name="Path 44" d="M30.248,257.488c-4.949-6.954-4.99-16.188-4.448-16.553,0,0,1.932,3.241,9.956,8.792,6.791,4.7,7.266,17.639,7.266,17.639a30.7,30.7,0,0,1-12.774-9.878" fill="#fff"/>
      <path id="Path_45" data-name="Path 45" d="M42.858,267.81a30.844,30.844,0,0,1-13-10.048c-4.651-6.536-4.99-14.78-4.673-16.53a.966.966,0,0,1,.346-.689l.412-.276.257.426c.02.031,2.014,3.246,9.82,8.645,6.906,4.778,7.45,17.473,7.471,18.011l.026.708Zm-12.225-10.6a30.319,30.319,0,0,0,11.867,9.42c-.228-2.8-1.421-12.649-7.012-16.518-5.71-3.95-8.366-6.738-9.451-8.065a27.28,27.28,0,0,0,4.6,15.163" fill="#fff"/>
    </g>
  </g>
</svg>
