<svg id="Camada_2" data-name="Camada 2" xmlns="http://www.w3.org/2000/svg" viewBox="0 0 470 470">
  <defs>
    <style>
      .cls-1 { fill: url(#primary-gradient); }
      .cls-2 { fill: url(#secondary-gradient); }
      .cls-3 { fill: url(#accent-gradient); }
      .cls-4 { fill: url(#primary-light-gradient); }
      .cls-5 { fill: url(#secondary-light-gradient); }
      .cls-6 { fill: url(#accent-light-gradient); }
      .cls-7 { fill: url(#primary-dark-gradient); }
      .cls-8 { fill: url(#secondary-dark-gradient); }
      .cls-9 { fill: url(#accent-dark-gradient); }
      .cls-10 { fill: url(#primary-gradient); }
      .cls-11 { fill: url(#secondary-gradient); }
      .cls-12 { fill: url(#accent-gradient); }
      .cls-13 { fill: url(#primary-light-gradient); }
      .cls-14 { fill: url(#secondary-light-gradient); }
      .cls-15 { fill: url(#accent-light-gradient); }
      .cls-16 { fill: url(#primary-dark-gradient); }
      .cls-17 { fill: url(#secondary-dark-gradient); }
      .cls-18 { fill: url(#accent-dark-gradient); }
      .cls-19 { fill: url(#primary-gradient); }
      .cls-20 { fill: url(#secondary-gradient); }
      .cls-21 { fill: url(#accent-gradient); }
      .cls-22 { fill: url(#primary-light-gradient); }
      .cls-23 { fill: url(#secondary-light-gradient); }
      .cls-24 { fill: url(#accent-light-gradient); }
      .cls-25 { fill: url(#primary-dark-gradient); }
      .cls-26 { fill: url(#secondary-dark-gradient); }
      .cls-27 { fill: url(#accent-dark-gradient); }
      .cls-28 { fill: url(#primary-gradient); }
      .cls-29 { fill: url(#secondary-gradient); }
      .cls-30 { fill: url(#accent-gradient); }
      .cls-31 { fill: url(#primary-light-gradient); }
      .cls-32 { fill: url(#secondary-light-gradient); }
      .cls-33 { fill: url(#accent-light-gradient); }
      .cls-34 { fill: url(#primary-dark-gradient); }
      .cls-35 { fill: url(#secondary-dark-gradient); }
      .cls-36 { fill: url(#accent-dark-gradient); }
      .cls-37 { fill: url(#primary-gradient); }
      .cls-38 { fill: url(#secondary-gradient); }
      .cls-39 { fill: url(#accent-gradient); }
      .cls-40 { fill: url(#primary-light-gradient); }
      .cls-41 { fill: url(#secondary-light-gradient); }
      .cls-42 { fill: url(#accent-light-gradient); }
      .cls-43 { fill: url(#primary-dark-gradient); }
      .cls-44 { fill: url(#secondary-dark-gradient); }
      .cls-45 { fill: #1a1a2e; }
    </style>
    <linearGradient id="primary-gradient" x1="0%" y1="0%" x2="100%" y2="100%">
      <stop offset="0%" style="stop-color:#4361ee;stop-opacity:1" />
      <stop offset="100%" style="stop-color:#3f37c9;stop-opacity:1" />
    </linearGradient>
    <linearGradient id="secondary-gradient" x1="0%" y1="0%" x2="100%" y2="100%">
      <stop offset="0%" style="stop-color:#f72585;stop-opacity:1" />
      <stop offset="100%" style="stop-color:#b5179e;stop-opacity:1" />
    </linearGradient>
    <linearGradient id="accent-gradient" x1="0%" y1="0%" x2="100%" y2="100%">
      <stop offset="0%" style="stop-color:#7209b7;stop-opacity:1" />
      <stop offset="100%" style="stop-color:#560bad;stop-opacity:1" />
    </linearGradient>
    <linearGradient id="primary-light-gradient" x1="0%" y1="0%" x2="100%" y2="100%">
      <stop offset="0%" style="stop-color:#6c7ce6;stop-opacity:1" />
      <stop offset="100%" style="stop-color:#4361ee;stop-opacity:1" />
    </linearGradient>
    <linearGradient id="secondary-light-gradient" x1="0%" y1="0%" x2="100%" y2="100%">
      <stop offset="0%" style="stop-color:#ff6b9d;stop-opacity:1" />
      <stop offset="100%" style="stop-color:#f72585;stop-opacity:1" />
    </linearGradient>
    <linearGradient id="accent-light-gradient" x1="0%" y1="0%" x2="100%" y2="100%">
      <stop offset="0%" style="stop-color:#9c4dcc;stop-opacity:1" />
      <stop offset="100%" style="stop-color:#7209b7;stop-opacity:1" />
    </linearGradient>
    <linearGradient id="primary-dark-gradient" x1="0%" y1="0%" x2="100%" y2="100%">
      <stop offset="0%" style="stop-color:#3f37c9;stop-opacity:1" />
      <stop offset="100%" style="stop-color:#2d1b69;stop-opacity:1" />
    </linearGradient>
    <linearGradient id="secondary-dark-gradient" x1="0%" y1="0%" x2="100%" y2="100%">
      <stop offset="0%" style="stop-color:#b5179e;stop-opacity:1" />
      <stop offset="100%" style="stop-color:#7b2d26;stop-opacity:1" />
    </linearGradient>
    <linearGradient id="accent-dark-gradient" x1="0%" y1="0%" x2="100%" y2="100%">
      <stop offset="0%" style="stop-color:#560bad;stop-opacity:1" />
      <stop offset="100%" style="stop-color:#2d0320;stop-opacity:1" />
    </linearGradient>
  </defs>
  <g id="Camada_1" data-name="Camada 1">
    <g>
      <circle class="cls-45" cx="235" cy="235" r="235"/>
      <polygon class="cls-1" points="184.46 134.86 201.17 145.65 235.11 124.63 268.68 146.15 285.53 135.65 235.24 103.19 184.46 134.86"/>
      <polygon class="cls-38" points="184.29 222.43 234.57 254.89 285.36 223.22 235.07 190.76 184.29 222.43"/>
      <polygon class="cls-39" points="235.25 168.35 268.71 189.8 285.23 179.5 234.94 147.04 184.16 178.71 200.98 189.57 235.25 168.35"/>
      <path class="cls-37" d="M234.76,63.95c-63.51,0-115,51.49-115,115s51.49,115,115,115,115-51.49,115-115-51.49-115-115-115ZM321.15,179.79l-34.62,21.44,34.75,22.28-86.89,53.81-86.04-55.16,34.62-21.44-34.75-22.28,34.94-21.64-34.64-22.21,86.89-53.81,86.04,55.16-34.94,21.64,34.64,22.21Z"/>
      <g>
        <path class="cls-43" d="M154.86,343.52c-12.13-12.01-14.24-31.32-13.16-32.36,0,0,11.02,8.46,29.42,15.95,15.57,6.34,13.27,30.52,13.27,30.52,0,0-17.4-2.1-29.53-14.11Z"/>
        <path class="cls-44" d="M184.33,358.1c-.18-.02-17.7-2.25-29.8-14.24-10.22-10.13-13.59-25.68-13.55-31.23,0-1.27.2-1.63.39-1.81l.29-.28.32.25c.11.08,11.19,8.51,29.31,15.89,15.72,6.4,13.58,30.76,13.56,31l-.05.48-.48-.06ZM155.19,343.18h0c10.74,10.64,25.85,13.45,28.76,13.9.21-3.45.84-23.9-13.01-29.54-16.02-6.52-26.59-13.87-29-15.62-.39,3.26,2.32,20.43,13.26,31.26Z"/>
        <g>
          <g>
            <path class="cls-42" d="M315.17,344.7c12.13-12.01,14.24-31.32,13.16-32.36,0,0-11.02,8.46-29.42,15.95-15.57,6.34-13.27,30.52-13.27,30.52,0,0,17.4-2.1,29.53-14.11Z"/>
            <path class="cls-40" d="M285.22,359.34l-.05-.48c-.02-.25-2.16-24.6,13.56-31,18.12-7.38,29.2-15.8,29.31-15.89l.32-.25.29.28c.19.18.38.54.39,1.81.04,5.54-3.33,21.1-13.55,31.23-12.1,11.99-29.63,14.22-29.8,14.24l-.48.06ZM328.09,313.11c-2.42,1.75-12.98,9.1-29,15.62-13.86,5.64-13.22,26.09-13.01,29.54,2.9-.45,18.02-3.27,28.76-13.9h0c10.93-10.83,13.65-28,13.26-31.26Z"/>
            <g>
              <g>
                <path class="cls-41" d="M278.46,370.47c-6.07-.71-11.89.01-16.86,1.22,3.81-2.53,7.69-5.8,10.96-9.94,10.57-13.4,10.31-32.82,9.11-33.73,0,0-9.9,9.74-27.25,19.42-14.68,8.2-9.44,31.91-9.44,31.91,0,0,.86-.21,2.29-.69,2.98,4.15,14.61,18.72,28.53,14.75,19.1-5.46,32.99-5.61,32.99-5.61.21-1.49-13.37-15.37-30.33-17.34Z"/>
                <path class="cls-18" d="M318.68,353.48c-16.95-1.97-31.94,7.12-31.94,7.12,0,0,13.11,20.45,29.27,15.83,19.1-5.46,32.99-5.61,32.99-5.61.21-1.49-13.37-15.37-30.33-17.34Z"/>
                <path class="cls-15" d="M356.29,340.45c-5.95-.69-11.62.32-16.18,1.71,3.58-2.6,7.55-6.29,10.35-11.18,6.4-11.19,3.75-25.83,2.72-26.4,0,0-6.36,8.35-18.42,17.41-8.62,6.47-4.97,19.87-3.62,23.89-.91.49-1.42.81-1.42.81,0,0,10.82,17.56,24.28,13.53,15.9-4.77,27.44-4.94,27.44-4.94.18-1.28-11.06-13.19-25.15-14.82Z"/>
                <path class="cls-16" d="M387.89,323.61c-5.78-.67-11.27.38-15.62,1.76,2.84-3.75,5.85-8.87,7.12-14.92,2.72-12.95-4.49-26.43-5.68-26.65,0,0-3.58,10.17-12.51,22.83-5.43,7.7-.59,17.5,2.57,22.41-.45.26-.7.41-.7.41,0,0,10.1,16.4,22.66,12.63,14.84-4.45,25.62-4.62,25.62-4.62.17-1.2-10.33-12.31-23.48-13.84Z"/>
                <path class="cls-17" d="M407.21,307.75c-5.95-.05-11.3,1.96-15.03,3.86,2.26-3.61,4.99-9.22,5.33-15.67.59-11.2-7.21-21.55-8.23-21.58,0,0-1.67,8.98-7.49,20.75-3.83,7.73,2.7,15.94,5.81,19.23-.48.34-.76.56-.76.56,0,0,9.99,12.9,20.23,8.59,12.1-5.09,21.17-6.2,21.17-6.2.03-1.02-9.81-9.44-21.03-9.54Z"/>
                <path class="cls-26" d="M420.99,289.56c-4.16.69-7.77,2.53-10.5,4.36,1.37-3.07,2.62-7.11,2.52-11.52-.2-9.51-7.44-17.76-8.31-17.72,0,0-.85,7.7-5.03,18.01-2.61,6.44,2.7,12.65,5.67,15.48-.21.22-.32.34-.32.34,0,0,10.23,9.31,18.15,4.22,9.36-6.02,16.77-8.27,16.77-8.27-.12-.86-9.57-6.45-18.95-4.89Z"/>
                <path class="cls-22" d="M419.3,279.18c-.1.1-.16.18-.16.18,0,0,8.62,8.54,15.36,4.14,7.97-5.2,14.25-7.06,14.25-7.06-.1-.77-8.08-5.96-16.04-4.76-4.37.66-8.03,2.91-10.45,4.81,1.14-2.73,2.31-6.77,1.76-11.05-.98-7.65-7.85-13.64-8.59-13.53,0,0-.07,6.28-2.77,14.98-1.79,5.76,4.02,10.5,6.63,12.3Z"/>
              </g>
            </g>
          </g>
        </g>
      </g>
    </g>
  </g>
</svg>